# exact C-glyph union prism (icra_sign pushed object)
v -0.0483 -0.0515 -0.0125
v -0.0163 -0.0515 -0.0125
v 0.0483 -0.0515 -0.0125
v 0.0483 -0.0195 -0.0125
v -0.0163 -0.0195 -0.0125
v -0.0163 0.0195 -0.0125
v 0.0483 0.0195 -0.0125
v 0.0483 0.0515 -0.0125
v -0.0163 0.0515 -0.0125
v -0.0483 0.0515 -0.0125
v -0.0483 -0.0515 0.0125
v -0.0163 -0.0515 0.0125
v 0.0483 -0.0515 0.0125
v 0.0483 -0.0195 0.0125
v -0.0163 -0.0195 0.0125
v -0.0163 0.0195 0.0125
v 0.0483 0.0195 0.0125
v 0.0483 0.0515 0.0125
v -0.0163 0.0515 0.0125
v -0.0483 0.0515 0.0125
f 9 2 1
f 11 12 19
f 10 9 1
f 11 19 20
f 4 3 2
f 12 13 14
f 5 4 2
f 12 14 15
f 8 7 6
f 16 17 18
f 9 8 6
f 16 18 19
f 1 2 12
f 1 12 11
f 2 3 13
f 2 13 12
f 3 4 14
f 3 14 13
f 4 5 15
f 4 15 14
f 5 6 16
f 5 16 15
f 6 7 17
f 6 17 16
f 7 8 18
f 7 18 17
f 8 9 19
f 8 19 18
f 9 10 20
f 9 20 19
f 10 1 11
f 10 11 20
