# https://github.com/mikedh/trimesh
v 0.05150000 -0.04960000 -0.01250000
v 0.05150000 0.04960000 -0.01250000
v 0.05110000 0.05060000 -0.01250000
v -0.02940000 0.04170000 -0.01250000
v -0.04450000 0.03400000 -0.01250000
v -0.05020000 0.02080000 -0.01250000
v -0.05150000 0.00350000 -0.01250000
v -0.05150000 -0.04960000 -0.01250000
v -0.05070000 -0.05060000 -0.01250000
v 0.05080000 -0.05060000 -0.01250000
v 0.05150000 -0.04960000 0.01250000
v 0.05150000 0.04960000 0.01250000
v 0.05110000 0.05060000 0.01250000
v -0.02940000 0.04170000 0.01250000
v -0.04450000 0.03400000 0.01250000
v -0.05020000 0.02080000 0.01250000
v -0.05150000 0.00350000 0.01250000
v -0.05150000 -0.04960000 0.01250000
v -0.05070000 -0.05060000 0.01250000
v 0.05080000 -0.05060000 0.01250000
vn 0.72860096 -0.22967122 -0.64528425
vn 0.73168763 0.14091016 -0.66691644
vn 0.41407629 0.69064432 -0.59291757
vn -0.21318563 0.71222125 -0.66879951
vn -0.56151371 0.52671579 -0.63817931
vn -0.71937960 0.17704909 -0.67167448
vn -0.71484880 0.02682067 -0.69876451
vn -0.72534373 -0.25443684 -0.63963924
vn -0.33941153 -0.70618806 -0.62136803
vn 0.36362965 -0.69840731 -0.61644197
vn 0.72860096 -0.22967122 0.64528425
vn 0.73168763 0.14091016 0.66691644
vn 0.41407629 0.69064432 0.59291757
vn -0.21318563 0.71222125 0.66879951
vn -0.56151371 0.52671579 0.63817931
vn -0.71937960 0.17704909 0.67167448
vn -0.71484880 0.02682067 0.69876451
vn -0.72534373 -0.25443684 0.63963924
vn -0.33941153 -0.70618806 0.62136803
vn 0.36362965 -0.69840731 0.61644197
f 1//1 3//3 2//2
f 1//1 4//4 3//3
f 1//1 5//5 4//4
f 1//1 6//6 5//5
f 1//1 7//7 6//6
f 1//1 8//8 7//7
f 1//1 9//9 8//8
f 1//1 10//10 9//9
f 11//11 12//12 13//13
f 11//11 13//13 14//14
f 11//11 14//14 15//15
f 11//11 15//15 16//16
f 11//11 16//16 17//17
f 11//11 17//17 18//18
f 11//11 18//18 19//19
f 11//11 19//19 20//20
f 1//1 2//2 12//12
f 1//1 12//12 11//11
f 2//2 3//3 13//13
f 2//2 13//13 12//12
f 3//3 4//4 14//14
f 3//3 14//14 13//13
f 4//4 5//5 15//15
f 4//4 15//15 14//14
f 5//5 6//6 16//16
f 5//5 16//16 15//15
f 6//6 7//7 17//17
f 6//6 17//17 16//16
f 7//7 8//8 18//18
f 7//7 18//18 17//17
f 8//8 9//9 19//19
f 8//8 19//19 18//18
f 9//9 10//10 20//20
f 9//9 20//20 19//19
f 10//10 1//1 11//11
f 10//10 11//11 20//20

