# extruded 10-vertex convex hull of OIM glyph 6
# source: oim/utils/scenes.py line 322
v 0.0158 0.0416 -0.0375
v -0.0433 0.0390 -0.0375
v -0.0503 0.0219 -0.0375
v -0.0480 -0.0113 -0.0375
v -0.0181 -0.0388 -0.0375
v 0.0130 -0.0409 -0.0375
v 0.0425 -0.0255 -0.0375
v 0.0514 -0.0002 -0.0375
v 0.0487 0.0196 -0.0375
v 0.0367 0.0356 -0.0375
v 0.0158 0.0416 0.0375
v -0.0433 0.0390 0.0375
v -0.0503 0.0219 0.0375
v -0.0480 -0.0113 0.0375
v -0.0181 -0.0388 0.0375
v 0.0130 -0.0409 0.0375
v 0.0425 -0.0255 0.0375
v 0.0514 -0.0002 0.0375
v 0.0487 0.0196 0.0375
v 0.0367 0.0356 0.0375
vn 0 0 -1
vn 0 0 1
vn -0.043951 0.999034 0
vn -0.925461 0.378844 0
vn -0.997609 -0.069111 0
vn -0.676950 -0.736029 0
vn -0.067371 -0.997728 0
vn 0.462771 -0.886478 0
vn 0.943334 -0.331845 0
vn 0.990830 0.135113 0
vn 0.800000 0.600000 0
vn 0.275936 0.961176 0
f 10//1 9//1 8//1 7//1 6//1 5//1 4//1 3//1 2//1 1//1
f 11//2 12//2 13//2 14//2 15//2 16//2 17//2 18//2 19//2 20//2
f 1//3 2//3 12//3 11//3
f 2//4 3//4 13//4 12//4
f 3//5 4//5 14//5 13//5
f 4//6 5//6 15//6 14//6
f 5//7 6//7 16//7 15//7
f 6//8 7//8 17//8 16//8
f 7//9 8//9 18//9 17//9
f 8//10 9//10 19//10 18//10
f 9//11 10//11 20//11 19//11
f 10//12 1//12 11//12 20//12
