# extruded 10-vertex convex hull of OIM glyph I
# source: oim/utils/scenes.py line 282
v -0.0320 -0.0149 -0.0375
v 0.0503 -0.0149 -0.0375
v 0.0511 -0.0145 -0.0375
v 0.0515 -0.0137 -0.0375
v 0.0515 0.0138 -0.0375
v 0.0503 0.0149 -0.0375
v -0.0504 0.0149 -0.0375
v -0.0515 0.0137 -0.0375
v -0.0515 -0.0138 -0.0375
v -0.0504 -0.0149 -0.0375
v -0.0320 -0.0149 0.0375
v 0.0503 -0.0149 0.0375
v 0.0511 -0.0145 0.0375
v 0.0515 -0.0137 0.0375
v 0.0515 0.0138 0.0375
v 0.0503 0.0149 0.0375
v -0.0504 0.0149 0.0375
v -0.0515 0.0137 0.0375
v -0.0515 -0.0138 0.0375
v -0.0504 -0.0149 0.0375
vn 0 0 -1
vn 0 0 1
vn 0.000000 -1.000000 0
vn 0.447214 -0.894427 0
vn 0.894427 -0.447214 0
vn 1.000000 -0.000000 0
vn 0.675725 0.737154 0
vn 0.000000 1.000000 0
vn -0.737154 0.675725 0
vn -1.000000 -0.000000 0
vn -0.707107 -0.707107 0
vn 0.000000 -1.000000 0
f 10//1 9//1 8//1 7//1 6//1 5//1 4//1 3//1 2//1 1//1
f 11//2 12//2 13//2 14//2 15//2 16//2 17//2 18//2 19//2 20//2
f 1//3 2//3 12//3 11//3
f 2//4 3//4 13//4 12//4
f 3//5 4//5 14//5 13//5
f 4//6 5//6 15//6 14//6
f 5//7 6//7 16//7 15//7
f 6//8 7//8 17//8 16//8
f 7//9 8//9 18//9 17//9
f 8//10 9//10 19//10 18//10
f 9//11 10//11 20//11 19//11
f 10//12 1//12 11//12 20//12
