# extruded 10-vertex convex hull of OIM glyph 2
# source: oim/utils/scenes.py line 306
v 0.0515 -0.0362 -0.0375
v 0.0515 0.0417 -0.0375
v 0.0279 0.0417 -0.0375
v -0.0219 0.0386 -0.0375
v -0.0345 0.0352 -0.0375
v -0.0494 0.0155 -0.0375
v -0.0515 -0.0020 -0.0375
v -0.0487 -0.0181 -0.0375
v -0.0416 -0.0315 -0.0375
v -0.0302 -0.0417 -0.0375
v 0.0515 -0.0362 0.0375
v 0.0515 0.0417 0.0375
v 0.0279 0.0417 0.0375
v -0.0219 0.0386 0.0375
v -0.0345 0.0352 0.0375
v -0.0494 0.0155 0.0375
v -0.0515 -0.0020 0.0375
v -0.0487 -0.0181 0.0375
v -0.0416 -0.0315 0.0375
v -0.0302 -0.0417 0.0375
vn 0 0 -1
vn 0 0 1
vn 1.000000 -0.000000 0
vn 0.000000 1.000000 0
vn -0.062129 0.998068 0
vn -0.260523 0.965468 0
vn -0.797564 0.603234 0
vn -0.992877 0.119145 0
vn -0.985212 -0.171341 0
vn -0.883627 -0.468191 0
vn -0.666795 -0.745241 0
vn 0.067167 -0.997742 0
f 10//1 9//1 8//1 7//1 6//1 5//1 4//1 3//1 2//1 1//1
f 11//2 12//2 13//2 14//2 15//2 16//2 17//2 18//2 19//2 20//2
f 1//3 2//3 12//3 11//3
f 2//4 3//4 13//4 12//4
f 3//5 4//5 14//5 13//5
f 4//6 5//6 15//6 14//6
f 5//7 6//7 16//7 15//7
f 6//8 7//8 17//8 16//8
f 7//9 8//9 18//9 17//9
f 8//10 9//10 19//10 18//10
f 9//11 10//11 20//11 19//11
f 10//12 1//12 11//12 20//12
