# https://github.com/mikedh/trimesh
v -0.05150000 0.01620000 -0.01250000
v -0.05150000 -0.01620000 -0.01250000
v -0.05010000 -0.01800000 -0.01250000
v 0.04990000 -0.05560000 -0.01250000
v 0.05110000 -0.05560000 -0.01250000
v 0.05150000 -0.05430000 -0.01250000
v 0.05150000 0.05430000 -0.01250000
v 0.05110000 0.05560000 -0.01250000
v 0.04990000 0.05560000 -0.01250000
v -0.05010000 0.01800000 -0.01250000
v -0.05150000 0.01620000 0.01250000
v -0.05150000 -0.01620000 0.01250000
v -0.05010000 -0.01800000 0.01250000
v 0.04990000 -0.05560000 0.01250000
v 0.05110000 -0.05560000 0.01250000
v 0.05150000 -0.05430000 0.01250000
v 0.05150000 0.05430000 0.01250000
v 0.05110000 0.05560000 0.01250000
v 0.04990000 0.05560000 0.01250000
v -0.05010000 0.01800000 0.01250000
vn -0.72612780 0.24914007 -0.64083356
vn -0.72612780 -0.24914007 -0.64083356
vn -0.45019704 -0.61139974 -0.65077876
vn -0.13294038 -0.73129652 -0.66897852
vn 0.47763023 -0.64669188 -0.59469234
vn 0.72950688 -0.10969422 -0.67511990
vn 0.72950688 0.10969422 -0.67511990
vn 0.47763023 0.64669188 -0.59469234
vn -0.13294038 0.73129652 -0.66897852
vn -0.45019704 0.61139974 -0.65077876
vn -0.72612780 0.24914007 0.64083356
vn -0.72612780 -0.24914007 0.64083356
vn -0.45019704 -0.61139974 0.65077876
vn -0.13294038 -0.73129652 0.66897852
vn 0.47763023 -0.64669188 0.59469234
vn 0.72950688 -0.10969422 0.67511990
vn 0.72950688 0.10969422 0.67511990
vn 0.47763023 0.64669188 0.59469234
vn -0.13294038 0.73129652 0.66897852
vn -0.45019704 0.61139974 0.65077876
f 1//1 3//3 2//2
f 1//1 4//4 3//3
f 1//1 5//5 4//4
f 1//1 6//6 5//5
f 1//1 7//7 6//6
f 1//1 8//8 7//7
f 1//1 9//9 8//8
f 1//1 10//10 9//9
f 11//11 12//12 13//13
f 11//11 13//13 14//14
f 11//11 14//14 15//15
f 11//11 15//15 16//16
f 11//11 16//16 17//17
f 11//11 17//17 18//18
f 11//11 18//18 19//19
f 11//11 19//19 20//20
f 1//1 2//2 12//12
f 1//1 12//12 11//11
f 2//2 3//3 13//13
f 2//2 13//13 12//12
f 3//3 4//4 14//14
f 3//3 14//14 13//13
f 4//4 5//5 15//15
f 4//4 15//15 14//14
f 5//5 6//6 16//16
f 5//5 16//16 15//15
f 6//6 7//7 17//17
f 6//6 17//17 16//16
f 7//7 8//8 18//18
f 7//7 18//18 17//17
f 8//8 9//9 19//19
f 8//8 19//19 18//18
f 9//9 10//10 20//20
f 9//9 20//20 19//19
f 10//10 1//1 11//11
f 10//10 11//11 20//20

