# extruded 8-vertex convex hull of OIM YCB mustard_bottle
# source: oim/utils/scenes.py lines 257-266, centered on bbox center (0.15, -0.18)
v -0.0314 -0.0145 -0.09565
v 0.0001 -0.0304 -0.09565
v 0.0366 -0.0315 -0.09565
v 0.0476 -0.0031 -0.09565
v 0.0318 0.0145 -0.09565
v 0.0055 0.0294 -0.09565
v -0.0379 0.0307 -0.09565
v -0.0486 0.0068 -0.09565
v -0.0314 -0.0145 0.09565
v 0.0001 -0.0304 0.09565
v 0.0366 -0.0315 0.09565
v 0.0476 -0.0031 0.09565
v 0.0318 0.0145 0.09565
v 0.0055 0.0294 0.09565
v -0.0379 0.0307 0.09565
v -0.0486 0.0068 0.09565
vn 0 0 -1
vn 0 0 1
vn -0.450611 -0.892720 0
vn -0.030123 -0.999546 0
vn 0.932497 -0.361178 0
vn 0.744134 0.668030 0
vn 0.492929 0.870069 0
vn 0.029940 0.999552 0
vn -0.912706 0.408617 0
vn -0.778010 -0.628252 0
f 8//1 7//1 6//1 5//1 4//1 3//1 2//1 1//1
f 9//2 10//2 11//2 12//2 13//2 14//2 15//2 16//2
f 1//3 2//3 10//3 9//3
f 2//4 3//4 11//4 10//4
f 3//5 4//5 12//5 11//5
f 4//6 5//6 13//6 12//6
f 5//7 6//7 14//7 13//7
f 6//8 7//8 15//8 14//8
f 7//9 8//9 16//9 15//9
f 8//10 1//10 9//10 16//10
