# extruded 8-vertex convex hull of OIM YCB spam_can
# source: oim/utils/scenes.py lines 247-256, centered on bbox center (0.6, -0.16)
v -0.0470 -0.0215 -0.04175
v -0.0296 -0.0301 -0.04175
v 0.0343 -0.0270 -0.04175
v 0.0510 -0.0095 -0.04175
v 0.0503 0.0127 -0.04175
v 0.0301 0.0301 -0.04175
v -0.0330 0.0271 -0.04175
v -0.0510 0.0100 -0.04175
v -0.0470 -0.0215 0.04175
v -0.0296 -0.0301 0.04175
v 0.0343 -0.0270 0.04175
v 0.0510 -0.0095 0.04175
v 0.0503 0.0127 0.04175
v 0.0301 0.0301 0.04175
v -0.0330 0.0271 0.04175
v -0.0510 0.0100 0.04175
vn 0 0 -1
vn 0 0 1
vn -0.443087 -0.896479 0
vn 0.048456 -0.998825 0
vn 0.723449 -0.690377 0
vn 0.999503 0.031516 0
vn 0.652643 0.757666 0
vn -0.047490 0.998872 0
vn -0.688749 0.724999 0
vn -0.992034 -0.125973 0
f 8//1 7//1 6//1 5//1 4//1 3//1 2//1 1//1
f 9//2 10//2 11//2 12//2 13//2 14//2 15//2 16//2
f 1//3 2//3 10//3 9//3
f 2//4 3//4 11//4 10//4
f 3//5 4//5 12//5 11//5
f 4//6 5//6 13//6 12//6
f 5//7 6//7 14//7 13//7
f 6//8 7//8 15//8 14//8
f 7//9 8//9 16//9 15//9
f 8//10 1//10 9//10 16//10
