# https://github.com/mikedh/trimesh
v -0.00771800 0.08100700 0.02390600
v -0.00771800 0.02034300 0.01820100
v -0.00771800 0.02034300 0.02390600
v 0.03225400 0.07387000 0.00392600
v -0.00771800 0.06744500 0.00035900
v 0.01940500 0.07029800 0.02890500
v 0.01797600 0.08922300 0.01035400
v -0.00771800 0.04104800 0.03604600
v -0.00700200 0.03105800 0.00606800
v 0.01369600 0.08600800 0.02748000
v 0.03225400 0.07601800 0.01819700
v -0.00771800 0.07030500 0.03461400
v 0.03225400 0.08672000 0.00535500
v 0.01298000 0.07101700 0.00000000
v 0.00727500 0.08386700 0.00535500
v -0.00414600 0.08386000 0.01463400
v -0.00700200 0.02748600 0.03033400
v 0.02440100 0.08743100 0.02105200
v 0.00370300 0.06530400 0.03461700
v -0.00771800 0.05246700 0.00035900
v 0.01512000 0.08172500 0.00107200
v 0.03225400 0.07244700 0.01249200
v 0.00869900 0.08886100 0.01962600
v 0.00227500 0.08243700 0.03033400
v -0.00700200 0.02392100 0.01178300
v 0.03225400 0.08314800 0.00250100
v -0.00771800 0.07744200 0.00821300
v 0.03225400 0.08672000 0.01320500
v 0.02011700 0.07957700 0.02748000
v -0.00700200 0.02034300 0.02390600
v 0.03225400 0.07244700 0.00535500
v 0.02440100 0.07101700 0.02533500
v 0.01583200 0.06887500 0.00035900
v 0.00584700 0.05745500 0.03390100
v 0.00869900 0.07743500 0.03176300
v 0.00013500 0.07672300 0.00178500
v 0.00441900 0.08672000 0.01106700
v -0.00700200 0.02034300 0.01820100
v -0.00771800 0.07744200 0.03104700
v 0.01726000 0.08886100 0.02248000
v 0.00299100 0.08529000 0.02676400
v -0.00271800 0.05674400 0.03604600
v -0.00771800 0.03962400 0.00321400
v 0.02796900 0.07815300 0.02248400
v 0.01726000 0.08672000 0.00535500
v -0.00700200 0.03605300 0.03461400
v 0.00513100 0.07315800 0.00000000
v -0.00700200 0.02820500 0.00750000
v 0.02011700 0.08922300 0.01535000
v 0.00013500 0.08600800 0.01891000
v -0.00771800 0.06173900 0.03604600
v 0.01940500 0.07957700 0.00035900
v 0.01298000 0.06815700 0.03176300
v 0.03225400 0.07530000 0.00321400
v 0.00013500 0.07315800 0.03390500
v 0.01797600 0.06673400 0.02890500
v 0.02939700 0.07244700 0.01962600
v -0.00700200 0.02463300 0.02818900
v 0.01369600 0.08922300 0.01106700
v 0.03225400 0.08529000 0.01534700
v -0.00771800 0.08171800 0.01463400
v 0.01012800 0.08743100 0.02605100
v 0.03225400 0.07315800 0.01463400
v 0.02368500 0.08386700 0.02390900
vn -0.82474998 0.54041261 0.16655832
vn -0.65601208 -0.72847911 -0.19739890
vn -0.63154255 -0.71389647 0.30249933
vn 0.83246752 -0.28792728 -0.47338748
vn -0.70306218 0.13351770 -0.69848164
vn 0.50406022 -0.04994393 0.86222323
vn 0.01812860 0.97332943 -0.22869449
vn -0.55104706 -0.15910637 0.81916561
vn -0.31490064 -0.40080296 -0.86034562
vn 0.19626155 0.58925279 0.78374904
vn 0.90504167 -0.10351244 0.41253455
vn -0.68382784 0.19153414 0.70405551
vn 0.65129421 0.66364652 -0.36795266
vn 0.04431260 -0.02425191 -0.99872330
vn -0.28785685 0.71986344 -0.63161306
vn -0.47311029 0.85575368 -0.20940938
vn -0.21813638 -0.52994123 0.81949912
vn 0.41668338 0.76300664 0.49416173
vn 0.19759293 0.07216490 0.97762430
vn -0.64545813 -0.11848883 -0.75454900
vn -0.09948022 0.47750319 -0.87298018
vn 0.94023796 -0.33643102 0.05259995
vn -0.19578909 0.97699034 0.08459611
vn -0.13062763 0.60382073 0.78634404
vn -0.20936628 -0.77699713 -0.59366760
vn 0.66739003 0.25726233 -0.69886096
vn -0.83116095 0.41648894 -0.36838625
vn 0.76041834 0.63886257 0.11669865
vn 0.42955011 0.22070016 0.87565869
vn 0.40701095 -0.84776957 0.34004242
vn 0.88944624 -0.39190911 -0.23514386
vn 0.67570625 -0.22417975 0.70225672
vn 0.18155047 -0.17128113 -0.96835025
vn 0.40975852 -0.16394627 0.89734028
vn 0.19609111 0.25889149 0.94579251
vn -0.31555411 0.50467221 -0.80357424
vn -0.34042763 0.87245899 -0.35060567
vn 0.40602512 -0.88874017 -0.21280158
vn -0.74038255 0.42772594 0.51854046
vn 0.13423384 0.92831795 0.34670891
vn -0.30294711 0.85996256 0.41071578
vn 0.13259339 -0.00595754 0.99115261
vn -0.61302399 -0.22675618 -0.75682443
vn 0.65643711 0.12937832 0.74320359
vn -0.08597987 0.78833139 -0.60921349
vn -0.13399221 -0.40659223 0.90373052
vn -0.07073422 0.13534422 -0.98827052
vn -0.34588790 -0.59294551 -0.72717067
vn 0.11795816 0.99206321 0.04354834
vn -0.38762389 0.91956709 0.06437461
vn -0.66803388 0.06810997 0.74100726
vn 0.07761956 0.16063549 -0.98395703
vn 0.35756142 0.01922608 0.93369170
vn 0.76279349 -0.13821245 -0.63169882
vn 0.05046013 0.25482903 0.96566865
vn 0.57251737 -0.28738368 0.76787661
vn 0.76143517 -0.44750052 0.46899869
vn -0.01335883 -0.64175280 0.76679520
vn -0.13614886 0.95989768 -0.24507129
vn 0.86039275 0.34482319 0.37526161
vn -0.82126994 0.54749462 -0.16051584
vn -0.08502473 0.86552548 0.49359542
vn 0.93615237 -0.30610193 0.17297499
vn 0.50883125 0.38181690 0.77156115
f 29//29 6//6 44//44
f 4//4 9//9 54//54
f 48//48 25//25 2//2
f 2//2 43//43 48//48
f 48//48 43//43 9//9
f 48//48 9//9 4//4
f 4//4 25//25 48//48
f 27//27 36//36 5//5
f 36//36 27//27 15//15
f 45//45 13//13 21//21
f 21//21 15//15 45//45
f 36//36 15//15 21//21
f 12//12 24//24 39//39
f 32//32 6//6 56//56
f 32//32 44//44 6//6
f 49//49 23//23 40//40
f 47//47 20//20 5//5
f 47//47 21//21 52//52
f 5//5 36//36 47//47
f 36//36 21//21 47//47
f 43//43 20//20 33//33
f 9//9 43//43 33//33
f 33//33 54//54 9//9
f 52//52 21//21 26//26
f 26//26 21//21 13//13
f 26//26 33//33 52//52
f 54//54 33//33 26//26
f 31//31 25//25 4//4
f 56//56 46//46 17//17
f 17//17 32//32 56//56
f 58//58 32//32 17//17
f 17//17 46//46 8//8
f 8//8 3//3 17//17
f 17//17 3//3 58//58
f 56//56 6//6 34//34
f 8//8 46//46 34//34
f 34//34 46//46 56//56
f 55//55 24//24 12//12
f 12//12 51//51 55//55
f 55//55 51//51 19//19
f 16//16 61//61 1//1
f 1//1 50//50 16//16
f 41//41 50//50 1//1
f 1//1 39//39 41//41
f 41//41 39//39 24//24
f 23//23 50//50 41//41
f 64//64 10//10 29//29
f 29//29 44//44 64//64
f 44//44 60//60 64//64
f 13//13 49//49 28//28
f 20//20 47//47 14//14
f 14//14 33//33 20//20
f 14//14 47//47 52//52
f 52//52 33//33 14//14
f 2//2 25//25 38//38
f 25//25 31//31 38//38
f 42//42 51//51 8//8
f 19//19 51//51 42//42
f 8//8 34//34 42//42
f 42//42 34//34 19//19
f 53//53 34//34 6//6
f 19//19 34//34 53//53
f 53//53 6//6 29//29
f 35//35 10//10 24//24
f 24//24 55//55 35//35
f 29//29 10//10 35//35
f 35//35 53//53 29//29
f 35//35 55//55 19//19
f 19//19 53//53 35//35
f 37//37 50//50 23//23
f 37//37 16//16 50//50
f 45//45 15//15 37//37
f 37//37 15//15 27//27
f 37//37 27//27 61//61
f 61//61 16//16 37//37
f 40//40 23//23 62//62
f 23//23 41//41 62//62
f 62//62 10//10 40//40
f 24//24 10//10 62//62
f 62//62 41//41 24//24
f 60//60 28//28 18//18
f 18//18 64//64 60//60
f 18//18 49//49 40//40
f 18//18 28//28 49//49
f 40//40 10//10 18//18
f 10//10 64//64 18//18
f 57//57 32//32 58//58
f 45//45 37//37 59//59
f 23//23 49//49 59//59
f 59//59 37//37 23//23
f 11//11 57//57 63//63
f 11//11 60//60 44//44
f 44//44 32//32 11//11
f 32//32 57//57 11//11
f 30//30 22//22 63//63
f 63//63 57//57 30//30
f 58//58 3//3 30//30
f 30//30 57//57 58//58
f 7//7 13//13 45//45
f 45//45 59//59 7//7
f 7//7 49//49 13//13
f 7//7 59//59 49//49
f 5//5 20//20 51//51
f 51//51 27//27 5//5
f 1//1 61//61 51//51
f 51//51 39//39 1//1
f 2//2 3//3 51//51
f 51//51 43//43 2//2
f 51//51 20//20 43//43
f 51//51 3//3 8//8
f 61//61 27//27 51//51
f 12//12 39//39 51//51
f 11//11 26//26 13//13
f 4//4 54//54 11//11
f 11//11 31//31 4//4
f 54//54 26//26 11//11
f 13//13 28//28 11//11
f 11//11 28//28 60//60
f 11//11 22//22 31//31
f 63//63 22//22 11//11
f 30//30 3//3 2//2
f 2//2 38//38 30//30
f 31//31 22//22 30//30
f 30//30 38//38 31//31


