# https://github.com/mikedh/trimesh
v -0.00772300 0.07744000 0.03033200
v -0.05411000 -0.00892200 0.01677700
v -0.05411000 -0.00892200 0.01891100
v -0.01485700 -0.00820000 0.01820200
v -0.00772300 0.06602200 0.00035700
v -0.02699200 -0.00892200 0.03604400
v -0.03341400 -0.00892200 0.00035700
v -0.03983600 0.03961200 0.02533600
v -0.03198300 0.04745500 0.00749800
v -0.00772300 0.03961200 0.03604400
v -0.03983600 0.02034900 0.03461500
v -0.00772300 0.02962800 0.00606900
v -0.04411800 -0.00606100 0.00107300
v -0.02056600 0.07101400 0.01606000
v -0.02199700 0.06030900 0.03390200
v -0.04697500 -0.00892200 0.03318600
v -0.04340500 0.03248100 0.01463500
v -0.01914000 -0.00892200 0.00606900
v -0.01628300 0.05173400 0.03674000
v -0.03269600 0.03248100 0.00107300
v -0.00772300 0.02178400 0.02747700
v -0.04982700 0.01035700 0.02462000
v -0.00843600 0.07815300 0.00963900
v -0.01700100 -0.00892200 0.02747700
v -0.02984900 0.06030900 0.01962400
v -0.00772300 0.05175200 0.00035700
v -0.03341400 0.00821800 0.03674000
v -0.01914000 0.05888200 0.00178600
v -0.04768800 0.00821800 0.00892300
v -0.00772300 0.06673500 0.03532700
v -0.01628300 0.07458800 0.02391100
v -0.03198300 0.03889000 0.03533100
v -0.04269200 -0.00892200 0.00035700
v -0.04840100 0.01963600 0.01748900
v -0.02841800 0.05816900 0.02819000
v -0.00772300 0.01892300 0.01749300
v -0.00772300 0.08101400 0.01463500
v -0.00843600 0.04246400 0.03674000
v -0.03769700 0.02820200 0.00392700
v -0.02556600 -0.00892200 0.00249800
v -0.03698400 0.03604600 0.03247300
v -0.02699200 0.06102200 0.01249400
v -0.04911400 0.00464400 0.02890300
v -0.03841000 0.04532500 0.01677700
v -0.02128400 -0.00892200 0.03247700
v -0.01628300 -0.00892200 0.01178100
v -0.04126600 -0.00892200 0.03532700
v -0.02413600 0.04602900 0.00035700
v -0.04911400 -0.00820000 0.00606900
v -0.01343100 0.07172700 0.03247700
v -0.04554400 0.02391500 0.02604900
v -0.03198300 0.02320200 0.03674000
v -0.01128800 0.06958800 0.00321500
v -0.05197100 -0.00748700 0.02676100
v -0.04411800 0.03248100 0.02033600
v -0.05125800 0.00678300 0.01534800
v -0.04197900 0.01035700 0.00249800
v -0.01914000 0.06743900 0.00892300
v -0.02984900 0.05103000 0.03247700
v -0.02770500 0.00036500 0.03674000
v -0.00986200 0.08029300 0.02105600
v -0.04340500 0.01464500 0.03318600
v -0.03698400 0.04817700 0.02105300
v -0.02699200 0.04674200 0.00178600
vn 0.45491769 0.70742896 0.54091974
vn -0.78209547 -0.60234191 -0.15972129
vn -0.78033254 -0.61799912 0.09569855
vn 0.78609617 -0.61807295 0.00621597
vn 0.56357470 0.27628813 -0.77849112
vn 0.15231098 -0.69357057 0.70410314
vn 0.07150944 -0.69353589 -0.71686426
vn -0.85191640 0.38140422 0.35884435
vn -0.73261186 0.39942679 -0.55112440
vn 0.82119207 -0.09298219 0.56302566
vn -0.46839552 0.13210894 0.87358621
vn 0.90735428 -0.12996271 -0.39977232
vn -0.55950666 0.04353728 -0.82768158
vn -0.70407219 0.68497219 -0.18733781
vn -0.45911483 0.38573831 0.80026216
vn -0.47113229 -0.62793656 0.61945948
vn -0.87694344 0.33883731 -0.34082179
vn 0.48239393 -0.72591862 -0.49024305
vn -0.08185297 0.10252368 0.99135714
vn -0.43748221 0.18106209 -0.88080976
vn 0.95460253 -0.16530316 0.24780816
vn -0.94037872 0.21493333 0.26361246
vn 0.22255341 0.77346722 -0.59347995
vn 0.58734344 -0.75396309 0.29422330
vn -0.81397788 0.58077691 0.01175521
vn 0.70668689 -0.01793597 -0.70729905
vn -0.11117606 0.00093839 0.99380028
vn -0.47420289 0.36637400 -0.80056337
vn -0.82661914 0.20751360 -0.52310506
vn 0.61518776 0.21035651 0.75979876
vn -0.65452264 0.71455453 0.24700592
vn -0.39263609 0.18744516 0.90038948
vn -0.24975467 -0.64436160 -0.72278679
vn -0.95580032 0.27385737 -0.10699480
vn -0.74236474 0.52737586 0.41324242
vn 0.98402917 -0.16650573 -0.06294790
vn 0.41387080 0.88163063 -0.22680035
vn 0.39930553 -0.00030734 0.91681787
vn -0.71240025 0.26309837 -0.65058830
vn 0.24547948 -0.72980252 -0.63806591
vn -0.70557326 0.28681526 0.64799952
vn -0.73971832 0.52546101 -0.42036595
vn -0.83056590 0.14592423 0.53746293
vn -0.87089782 0.43715680 -0.22456830
vn 0.41942393 -0.75550526 0.50328459
vn 0.60858894 -0.76780735 -0.20022830
vn -0.17398774 -0.67358949 0.71833520
vn -0.20557666 0.12207804 -0.97099701
vn -0.72516356 -0.47288645 -0.50051596
vn -0.41375053 0.54120982 0.73205356
vn -0.88101651 0.27816093 0.38267010
vn -0.14965345 0.03952852 0.98794805
vn -0.34106615 0.56133520 -0.75404023
vn -0.86272090 -0.29154421 0.41317626
vn -0.93218663 0.35267935 0.08151909
vn -0.95786478 0.20104369 -0.20512557
vn -0.63184003 0.17795713 -0.75439343
vn -0.63172839 0.56912919 -0.52631854
vn -0.65850703 0.37047836 0.65506814
vn 0.03289676 -0.05226873 0.99809107
vn -0.23284088 0.96001260 0.15543789
vn -0.65932630 0.15824371 0.73501548
vn -0.86791631 0.47234019 0.15367504
vn -0.54985493 0.31190799 -0.77483738
f 4//4 36//36 21//21
f 46//46 36//36 4//4
f 4//4 21//21 24//24
f 24//24 46//46 4//4
f 21//21 10//10 24//24
f 1//1 37//37 61//61
f 61//61 37//37 14//14
f 23//23 37//37 5//5
f 14//14 37//37 23//23
f 22//22 54//54 43//43
f 43//43 51//51 22//22
f 54//54 22//22 3//3
f 63//63 25//25 44//44
f 59//59 15//15 35//35
f 25//25 63//63 35//35
f 15//15 50//50 35//35
f 7//7 26//26 40//40
f 40//40 26//26 18//18
f 36//36 46//46 12//12
f 12//12 46//46 18//18
f 18//18 26//26 12//12
f 9//9 17//17 44//44
f 33//33 49//49 13//13
f 20//20 48//48 33//33
f 33//33 13//13 20//20
f 2//2 49//49 33//33
f 1//1 50//50 30//30
f 30//30 15//15 19//19
f 30//30 50//50 15//15
f 45//45 10//10 6//6
f 45//45 24//24 10//10
f 60//60 47//47 6//6
f 60//60 27//27 47//47
f 47//47 11//11 16//16
f 43//43 54//54 16//16
f 54//54 3//3 16//16
f 47//47 27//27 52//52
f 52//52 11//11 47//47
f 32//32 15//15 59//59
f 59//59 41//41 32//32
f 32//32 41//41 11//11
f 11//11 52//52 32//32
f 32//32 52//52 19//19
f 19//19 15//15 32//32
f 34//34 22//22 55//55
f 55//55 22//22 51//51
f 55//55 63//63 44//44
f 44//44 17//17 55//55
f 55//55 17//17 34//34
f 31//31 35//35 50//50
f 1//1 61//61 31//31
f 31//31 50//50 1//1
f 25//25 35//35 31//31
f 14//14 25//25 31//31
f 31//31 61//61 14//14
f 5//5 48//48 28//28
f 17//17 9//9 39//39
f 56//56 49//49 2//2
f 2//2 3//3 56//56
f 34//34 17//17 56//56
f 56//56 22//22 34//34
f 56//56 3//3 22//22
f 10//10 30//30 38//38
f 38//38 30//30 19//19
f 6//6 10//10 38//38
f 38//38 60//60 6//6
f 43//43 16//16 62//62
f 62//62 16//16 11//11
f 11//11 41//41 62//62
f 62//62 51//51 43//43
f 62//62 41//41 51//51
f 51//51 41//41 8//8
f 8//8 55//55 51//51
f 63//63 55//55 8//8
f 8//8 41//41 59//59
f 59//59 35//35 8//8
f 8//8 35//35 63//63
f 64//64 48//48 20//20
f 64//64 28//28 48//48
f 9//9 28//28 64//64
f 20//20 39//39 64//64
f 64//64 39//39 9//9
f 53//53 23//23 5//5
f 5//5 28//28 53//53
f 49//49 56//56 29//29
f 17//17 39//39 29//29
f 29//29 56//56 17//17
f 58//58 53//53 28//28
f 14//14 23//23 58//58
f 23//23 53//53 58//58
f 13//13 49//49 57//57
f 49//49 29//29 57//57
f 57//57 29//29 39//39
f 20//20 13//13 57//57
f 57//57 39//39 20//20
f 42//42 28//28 9//9
f 42//42 58//58 28//28
f 44//44 25//25 42//42
f 42//42 9//9 44//44
f 42//42 25//25 14//14
f 14//14 58//58 42//42
f 5//5 26//26 33//33
f 33//33 26//26 7//7
f 33//33 48//48 5//5
f 30//30 37//37 1//1
f 30//30 26//26 5//5
f 30//30 21//21 36//36
f 5//5 37//37 30//30
f 36//36 12//12 30//30
f 30//30 10//10 21//21
f 30//30 12//12 26//26
f 16//16 3//3 2//2
f 7//7 40//40 16//16
f 16//16 33//33 7//7
f 6//6 47//47 16//16
f 18//18 46//46 16//16
f 46//46 24//24 16//16
f 16//16 45//45 6//6
f 16//16 40//40 18//18
f 2//2 33//33 16//16
f 24//24 45//45 16//16
f 27//27 60//60 38//38
f 19//19 52//52 38//38
f 38//38 52//52 27//27


