# https://github.com/mikedh/trimesh
v -0.01557000 -0.01249900 0.01820100
v -0.05447100 -0.03249000 0.01606300
v -0.05447100 -0.03249000 0.01819700
v -0.02413500 -0.08815100 0.01749200
v -0.03626600 -0.00892200 0.03604600
v -0.04269100 -0.00892200 0.00035900
v -0.02913400 -0.07885800 0.00321400
v -0.04483200 -0.06816000 0.02462200
v -0.01771400 -0.00892200 0.00821300
v -0.02770500 -0.06031200 0.03033400
v -0.04483200 -0.07030000 0.00820900
v -0.05054200 -0.00892200 0.02961800
v -0.01985400 -0.00892200 0.03104700
v -0.01842900 -0.07458700 0.01677900
v -0.02128000 -0.05887500 0.00393000
v -0.04840200 -0.03890800 0.03104700
v -0.04269100 -0.04959800 0.00035900
v -0.03555200 -0.08815100 0.01820100
v -0.02984900 -0.00892200 0.00107600
v -0.05268200 -0.01035900 0.01178000
v -0.01914000 -0.07672600 0.00964200
v -0.03199000 -0.08743200 0.00606800
v -0.04982700 -0.03605000 0.00535500
v -0.05125700 -0.05816500 0.01677600
v -0.03484500 -0.04889600 0.00000000
v -0.03270400 -0.06602100 0.02961800
v -0.03056400 -0.02677300 0.03533000
v -0.01914000 -0.06458400 0.02248000
v -0.01557000 -0.00892200 0.02390900
v -0.04126600 -0.08172400 0.01249200
v -0.02699400 -0.08172400 0.02390600
v -0.04340600 -0.03177100 0.03390100
v -0.05197100 -0.04105600 0.02605100
v -0.02128000 -0.08385600 0.00821300
v -0.05411200 -0.00892200 0.01962600
v -0.02699400 -0.01107000 0.03604600
v -0.04911600 -0.05673600 0.00820900
v -0.03912200 -0.06673100 0.00178500
v -0.04768700 -0.01178000 0.03318800
v -0.04768700 -0.02034700 0.00250100
v -0.03840700 -0.06958900 0.02747600
v -0.01771400 -0.06244400 0.01106700
v -0.02699400 -0.05103500 0.00107600
v -0.02128000 -0.00892200 0.00464600
v -0.02342400 -0.06173300 0.02747600
v -0.05339700 -0.02963100 0.02533500
v -0.02056900 -0.08029500 0.01962600
v -0.04269100 -0.05816500 0.02961800
v -0.03341500 -0.05103500 0.03247200
v -0.04768700 -0.05816500 0.02676400
v -0.01771400 -0.06673100 0.01891400
v -0.04269100 -0.02463400 0.00000000
v -0.03484500 -0.08243500 0.02319700
v -0.04626100 -0.07030000 0.01962600
v -0.05339700 -0.03177100 0.01106700
v -0.01914000 -0.06458400 0.00678400
v -0.03413000 -0.08922300 0.01249200
v -0.03840700 -0.08315300 0.00821300
v -0.04483200 -0.05745400 0.00321700
v -0.05125700 -0.02749200 0.02961800
v -0.01557000 -0.00892200 0.01535000
v -0.04768700 -0.06816000 0.01249200
v -0.03840700 -0.01677800 0.00000000
v -0.02699400 -0.08743200 0.00678400
vn 0.99957567 -0.02765348 -0.00915201
vn -0.99216999 -0.05233028 -0.11340309
vn -0.99444942 -0.06285493 0.08437780
vn 0.48957493 -0.81034146 0.32196755
vn -0.08085298 0.66973577 0.73818480
vn -0.27087695 0.66183643 -0.69899801
vn 0.15288520 -0.21802841 -0.96389301
vn -0.67483936 -0.38579839 0.62908779
vn 0.65195424 0.65477454 -0.38239505
vn 0.31488818 -0.18045162 0.93181685
vn -0.76285170 -0.33190168 -0.55488608
vn -0.59561186 0.68793746 0.41471505
vn 0.55253519 0.63598516 0.53872789
vn 0.97479365 -0.18841412 0.11948834
vn 0.58865026 -0.05434942 -0.80655875
vn -0.57060927 -0.14162497 0.80891744
vn -0.36993892 -0.07648794 -0.92590215
vn -0.41498559 -0.81384751 0.40674216
vn 0.17095084 0.68318884 -0.70994987
vn -0.78989222 0.49253718 -0.36534560
vn 0.94256223 -0.17927606 -0.28184488
vn -0.20101391 -0.69629942 -0.68902868
vn -0.77490626 -0.05855674 -0.62935793
vn -0.97278302 -0.22972684 0.03031120
vn 0.04620294 -0.04016251 -0.99812437
vn -0.01325937 -0.26758197 0.96344386
vn 0.11260453 -0.09715787 0.98887844
vn 0.81477523 -0.12870933 0.56530986
vn 0.74248285 0.63293879 0.21933468
vn -0.83854949 -0.53582840 -0.09860362
vn 0.26565649 -0.45987270 0.84731560
vn -0.25114515 -0.08772259 0.96396621
vn -0.90050308 -0.14548504 0.40979056
vn 0.75638854 -0.45672596 -0.46827106
vn -0.73969473 0.67178395 0.03947195
vn 0.29638988 0.31323137 0.90224118
vn -0.86960771 -0.17567707 -0.46143255
vn -0.33211488 -0.21502667 -0.91840255
vn -0.49029498 0.22434803 0.84218691
vn -0.67610674 0.05620685 -0.73465670
vn -0.29982744 -0.34009774 0.89131197
vn 0.98478639 -0.04514563 -0.16780236
vn 0.28517141 -0.02825196 -0.95806007
vn 0.41499220 0.67241913 -0.61288987
vn 0.60989333 -0.15992581 0.77617902
vn -0.94806263 -0.03526794 0.31612249
vn 0.81785306 -0.35057268 0.45630600
vn -0.33220569 -0.23373856 0.91378644
vn -0.01311694 -0.15350448 0.98806089
vn -0.73571351 -0.26894788 0.62160491
vn 0.97133226 -0.10414887 0.21369757
vn -0.23591866 -0.00046273 -0.97177270
vn -0.28372200 -0.51911859 0.80623676
vn -0.86925840 -0.42121296 0.25878462
vn -0.93056531 -0.02567845 -0.36522435
vn 0.84025328 -0.08204745 -0.53595022
vn -0.32594733 -0.93774193 -0.11999336
vn -0.66289574 -0.51025384 -0.54791447
vn -0.65056146 -0.18205143 -0.73731070
vn -0.77536204 -0.02848021 0.63087446
vn 0.73441360 0.66968611 -0.11025957
vn -0.91839544 -0.34846190 -0.18741431
vn 0.03727157 0.02826775 -0.99890528
vn 0.31387245 -0.74061538 -0.59411526
f 3//3 35//35 2//2
f 36//36 13//13 5//5
f 45//45 13//13 36//36
f 20//20 35//35 6//6
f 6//6 40//40 20//20
f 2//2 35//35 20//20
f 59//59 23//23 17//17
f 17//17 23//23 40//40
f 12//12 39//39 5//5
f 5//5 39//39 32//32
f 27//27 36//36 5//5
f 5//5 32//32 27//27
f 27//27 32//32 49//49
f 26//26 41//41 53//53
f 53//53 31//31 26//26
f 37//37 23//23 59//59
f 59//59 11//11 37//37
f 37//37 11//11 62//62
f 40//40 23//23 55//55
f 55//55 20//20 40//40
f 2//2 20//20 55//55
f 23//23 37//37 55//55
f 57//57 4//4 18//18
f 18//18 31//31 53//53
f 18//18 4//4 31//31
f 50//50 54//54 8//8
f 53//53 41//41 8//8
f 8//8 18//18 53//53
f 54//54 18//18 8//8
f 62//62 54//54 24//24
f 24//24 3//3 2//2
f 24//24 54//54 50//50
f 24//24 37//37 62//62
f 2//2 55//55 24//24
f 24//24 55//55 37//37
f 1//1 61//61 29//29
f 15//15 44//44 9//9
f 34//34 7//7 15//15
f 21//21 14//14 34//34
f 25//25 17//17 52//52
f 52//52 40//40 6//6
f 52//52 17//17 40//40
f 25//25 7//7 38//38
f 38//38 17//17 25//25
f 59//59 17//17 38//38
f 38//38 11//11 59//59
f 58//58 11//11 38//38
f 43//43 19//19 44//44
f 43//43 44//44 15//15
f 25//25 19//19 43//43
f 15//15 7//7 43//43
f 43//43 7//7 25//25
f 46//46 12//12 35//35
f 35//35 3//3 46//46
f 16//16 32//32 39//39
f 45//45 36//36 10//10
f 36//36 27//27 10//10
f 10//10 27//27 49//49
f 49//49 26//26 10//10
f 10//10 31//31 45//45
f 10//10 26//26 31//31
f 42//42 14//14 21//21
f 42//42 9//9 61//61
f 42//42 61//61 1//1
f 31//31 4//4 47//47
f 45//45 31//31 47//47
f 47//47 34//34 14//14
f 4//4 34//34 47//47
f 30//30 54//54 62//62
f 30//30 18//18 54//54
f 62//62 11//11 30//30
f 30//30 11//11 58//58
f 30//30 58//58 57//57
f 57//57 18//18 30//30
f 57//57 58//58 22//22
f 58//58 38//38 22//22
f 22//22 38//38 7//7
f 6//6 19//19 63//63
f 63//63 52//52 6//6
f 63//63 19//19 25//25
f 25//25 52//52 63//63
f 3//3 24//24 33//33
f 33//33 46//46 3//3
f 33//33 24//24 50//50
f 50//50 16//16 33//33
f 39//39 12//12 60//60
f 12//12 46//46 60//60
f 60//60 16//16 39//39
f 46//46 33//33 60//60
f 60//60 33//33 16//16
f 32//32 16//16 48//48
f 41//41 26//26 48//48
f 48//48 16//16 50//50
f 49//49 32//32 48//48
f 48//48 26//26 49//49
f 50//50 8//8 48//48
f 48//48 8//8 41//41
f 51//51 42//42 1//1
f 14//14 42//42 51//51
f 1//1 29//29 51//51
f 51//51 47//47 14//14
f 15//15 9//9 56//56
f 9//9 42//42 56//56
f 56//56 42//42 21//21
f 56//56 34//34 15//15
f 21//21 34//34 56//56
f 7//7 34//34 64//64
f 64//64 22//22 7//7
f 64//64 34//34 4//4
f 64//64 4//4 57//57
f 57//57 22//22 64//64
f 28//28 29//29 13//13
f 28//28 51//51 29//29
f 28//28 13//13 45//45
f 45//45 47//47 28//28
f 47//47 51//51 28//28
f 6//6 35//35 9//9
f 9//9 19//19 6//6
f 5//5 13//13 9//9
f 9//9 12//12 5//5
f 13//13 29//29 9//9
f 44//44 19//19 9//9
f 35//35 12//12 9//9
f 9//9 29//29 61//61


