# https://github.com/mikedh/trimesh
v 0.03368200 0.07958900 0.01748800
v 0.04938500 0.08172700 0.00000000
v 0.03225400 0.07816200 0.00249900
v 0.03225400 0.08743800 0.00678400
v 0.05366600 0.08815100 0.01034700
v 0.05295100 0.07744900 0.00678400
v 0.03225400 0.07316300 0.00464100
v 0.05295100 0.08886500 0.00321300
v 0.03225400 0.07459100 0.01534600
v 0.05366600 0.08101600 0.01248900
v 0.03225400 0.08672400 0.01320300
v 0.05295100 0.07816200 0.00107200
v 0.03296900 0.08386700 0.00249900
v 0.05447100 0.08101600 0.00464100
v 0.05152200 0.08922300 0.00606800
v 0.05295100 0.08601100 0.01248900
v 0.05223500 0.08458100 0.00000000
v 0.03296900 0.07316300 0.01248900
v 0.04367400 0.08815100 0.00321300
v 0.03225400 0.08458100 0.01534600
v 0.03296900 0.07673200 0.01748800
v 0.05295100 0.07958900 0.01177600
v 0.03225400 0.07530500 0.00321300
v 0.05295100 0.07744900 0.00249900
v 0.05437900 0.08743800 0.00963400
v 0.05437900 0.08458100 0.00249900
v 0.04509900 0.08458100 0.00035900
v 0.05295100 0.08743800 0.01177600
v 0.03368200 0.07316300 0.00606800
v 0.05223500 0.07887600 0.00035900
v 0.05437900 0.08101600 0.01177600
v 0.03439800 0.08244000 0.00178600
v 0.03225400 0.08030300 0.01748800
v 0.05009800 0.08601100 0.00035900
v 0.04509900 0.08886500 0.00392800
v 0.03796600 0.08815100 0.00820900
v 0.05366600 0.07816200 0.00820900
v 0.03225400 0.08672400 0.00535500
v 0.05366600 0.08886500 0.00892200
vn 0.14082298 0.09421994 0.98554122
vn -0.04683304 -0.08557141 -0.99523073
vn -0.72987663 -0.10189424 -0.67594206
vn -0.71089914 0.69421078 -0.11266674
vn 0.51231076 0.69517232 0.50425502
vn 0.45582342 -0.88475720 0.09710668
vn -0.59042499 -0.71896597 -0.36672370
vn 0.49209333 0.76578668 -0.41402285
vn -0.58062888 -0.65712153 0.48068847
vn 0.51223775 -0.23562480 0.82588948
vn -0.65297056 0.66524652 0.36204490
vn 0.60810079 -0.53785388 -0.58388923
vn -0.59111468 0.33408636 -0.73414559
vn 0.98138147 -0.16248345 -0.10241844
vn 0.03808868 0.99918182 0.01359973
vn 0.49829089 0.26092373 0.82681618
vn 0.40351009 0.19707646 -0.89349901
vn -0.27778044 -0.93077151 0.23770237
vn -0.16653404 0.73740866 -0.65459521
vn -0.64916638 0.43180190 0.62620295
vn -0.27560702 -0.40622858 0.87121703
vn 0.43466460 -0.70077155 0.56567299
vn -0.68989616 -0.30852580 -0.65487030
vn 0.60007448 -0.77001501 -0.21676601
vn 0.93988342 0.27772342 0.19871804
vn 0.91753621 0.13133150 -0.37533897
vn -0.14158901 0.27478765 -0.95102277
vn 0.39473516 0.61750198 0.68034951
vn 0.12782938 -0.99017089 -0.05675612
vn 0.29005174 -0.31950312 -0.90210185
vn 0.87524397 -0.23343036 0.42362515
vn -0.23066838 0.08103450 -0.96965226
vn -0.63248940 0.18137391 0.75303430
vn 0.00569164 0.48807430 -0.87278353
vn -0.08418890 0.94314220 -0.32155097
vn -0.09385595 0.99090342 0.09644411
vn 0.71375310 -0.67258613 0.19540831
vn -0.74535326 0.52675617 -0.40862752
vn 0.51887735 0.84031899 0.15694038
f 17//17 8//8 26//26
f 14//14 12//12 26//26
f 26//26 12//12 17//17
f 39//39 8//8 15//15
f 38//38 13//13 3//3
f 34//34 8//8 17//17
f 18//18 22//22 9//9
f 9//9 7//7 18//18
f 10//10 16//16 1//1
f 4//4 11//11 36//36
f 36//36 39//39 15//15
f 11//11 39//39 36//36
f 17//17 12//12 30//30
f 30//30 2//2 17//17
f 3//3 2//2 30//30
f 12//12 7//7 30//30
f 28//28 39//39 11//11
f 11//11 20//20 28//28
f 25//25 26//26 8//8
f 8//8 39//39 25//25
f 14//14 26//26 25//25
f 25//25 28//28 16//16
f 17//17 2//2 27//27
f 27//27 34//34 17//17
f 35//35 38//38 4//4
f 15//15 8//8 35//35
f 35//35 36//36 15//15
f 4//4 36//36 35//35
f 21//21 10//10 1//1
f 21//21 9//9 22//22
f 22//22 10//10 21//21
f 37//37 22//22 18//18
f 18//18 6//6 37//37
f 24//24 7//7 12//12
f 24//24 37//37 6//6
f 24//24 12//12 14//14
f 14//14 37//37 24//24
f 3//3 30//30 23//23
f 23//23 30//30 7//7
f 39//39 28//28 5//5
f 5//5 25//25 39//39
f 28//28 25//25 5//5
f 3//3 13//13 32//32
f 13//13 27//27 32//32
f 32//32 2//2 3//3
f 32//32 27//27 2//2
f 13//13 38//38 19//19
f 38//38 35//35 19//19
f 19//19 27//27 13//13
f 34//34 27//27 19//19
f 8//8 34//34 19//19
f 19//19 35//35 8//8
f 9//9 21//21 33//33
f 33//33 21//21 1//1
f 1//1 16//16 33//33
f 16//16 28//28 33//33
f 33//33 28//28 20//20
f 31//31 10//10 22//22
f 22//22 37//37 31//31
f 31//31 37//37 14//14
f 14//14 25//25 31//31
f 16//16 10//10 31//31
f 31//31 25//25 16//16
f 18//18 7//7 29//29
f 7//7 24//24 29//29
f 29//29 6//6 18//18
f 29//29 24//24 6//6
f 33//33 11//11 4//4
f 33//33 20//20 11//11
f 33//33 38//38 3//3
f 4//4 38//38 33//33
f 7//7 9//9 33//33
f 3//3 23//23 33//33
f 33//33 23//23 7//7


