# https://github.com/mikedh/trimesh
v 0.04161400 -0.05499200 0.00307600
v 0.06598300 -0.03381500 0.01195300
v 0.06483400 -0.03518500 0.01331800
v 0.05390600 -0.05499200 0.00375900
v 0.05185700 -0.05499200 0.01537000
v 0.06483400 -0.03518500 0.00034300
v 0.04092700 -0.05430800 0.01058700
v 0.06141700 -0.03449900 0.00171000
v 0.06414900 -0.03996500 0.01263600
v 0.06141700 -0.03449900 0.00922000
v 0.06483400 -0.03791500 0.00034300
v 0.05049200 -0.05499200 0.00171000
v 0.04912600 -0.05362200 0.01537000
v 0.05800300 -0.04884200 0.01468500
v 0.06346900 -0.03518500 0.01331800
v 0.06483400 -0.03928100 0.00375900
v 0.06073500 -0.03723300 0.00034300
v 0.04161400 -0.05430800 0.01195300
v 0.04092700 -0.05430800 0.00512500
v 0.05458900 -0.05430800 0.00990400
v 0.04229500 -0.05430800 0.00239400
v 0.06598300 -0.03655100 0.00307600
v 0.06414900 -0.03791500 0.01400200
v 0.05732000 -0.05020800 0.00239400
v 0.06346900 -0.03381500 0.01195300
v 0.06598300 -0.03381500 0.00444300
v 0.04161400 -0.05499200 0.01195300
v 0.06598300 -0.03655100 0.01126900
v 0.05936900 -0.04747300 0.01126900
v 0.05322300 -0.05499200 0.01468500
vn -0.68255640 -0.54886679 -0.48255778
vn 0.66028676 0.64102980 0.39128274
vn 0.39426828 0.33368727 0.85627410
vn 0.45917931 -0.83917471 -0.29144497
vn 0.06630356 -0.67900084 0.73113726
vn 0.43752237 0.47810096 -0.76157314
vn -0.98784841 0.04737694 0.14802347
vn -0.38365590 0.82099616 -0.42281609
vn 0.84478035 -0.44352845 0.29938048
vn -0.54710599 0.82968778 0.11087477
vn 0.61542099 -0.24169473 -0.75022708
vn 0.05406632 -0.70742773 -0.70471472
vn -0.28692003 -0.05208018 0.95653779
vn 0.60173416 -0.37886714 0.70311855
vn -0.23487027 0.51394099 0.82504582
vn 0.86994287 -0.48579207 -0.08488496
vn -0.26561493 0.25440768 -0.92990615
vn -0.69042689 0.31072446 0.65326949
vn -0.99120763 0.04070700 -0.12589827
vn 0.70317441 -0.70971718 0.04298002
vn -0.54065775 0.03217898 -0.84062698
vn 0.97493746 -0.13528424 -0.17662143
vn 0.46654536 -0.04860742 0.88316066
vn 0.66598439 -0.53993368 -0.51471974
vn -0.27285182 0.88090659 0.38672401
vn 0.65867258 0.73804149 -0.14644181
vn -0.55779537 -0.64734005 0.51943738
vn 0.95371353 -0.21643312 0.20877549
vn 0.82559468 -0.56211535 0.04919099
vn 0.43190324 -0.79830841 0.41971809
f 23//23 13//13 5//5
f 15//15 13//13 23//23
f 12//12 1//1 21//21
f 1//1 19//19 21//21
f 19//19 8//8 21//21
f 5//5 13//13 27//27
f 3//3 23//23 2//2
f 15//15 23//23 3//3
f 6//6 8//8 26//26
f 26//26 22//22 6//6
f 2//2 26//26 25//25
f 25//25 26//26 8//8
f 5//5 30//30 14//14
f 14//14 23//23 5//5
f 20//20 24//24 29//29
f 29//29 14//14 20//20
f 20//20 14//14 30//30
f 12//12 21//21 17//17
f 17//17 8//8 6//6
f 17//17 21//21 8//8
f 9//9 14//14 29//29
f 23//23 14//14 9//9
f 6//6 22//22 11//11
f 11//11 24//24 12//12
f 11//11 17//17 6//6
f 12//12 17//17 11//11
f 29//29 24//24 16//16
f 16//16 9//9 29//29
f 24//24 11//11 16//16
f 16//16 11//11 22//22
f 7//7 25//25 10//10
f 10//10 25//25 8//8
f 7//7 27//27 18//18
f 18//18 25//25 7//7
f 15//15 25//25 18//18
f 18//18 13//13 15//15
f 18//18 27//27 13//13
f 12//12 24//24 4//4
f 24//24 20//20 4//4
f 4//4 20//20 30//30
f 2//2 23//23 28//28
f 23//23 9//9 28//28
f 28//28 16//16 22//22
f 9//9 16//16 28//28
f 7//7 19//19 27//27
f 27//27 19//19 1//1
f 15//15 3//3 25//25
f 25//25 3//3 2//2
f 10//10 19//19 7//7
f 10//10 8//8 19//19
f 4//4 1//1 12//12
f 4//4 30//30 5//5
f 5//5 27//27 4//4
f 4//4 27//27 1//1
f 22//22 26//26 28//28
f 28//28 26//26 2//2


