# https://github.com/mikedh/trimesh
v -0.06290700 -0.08846500 0.01400500
v -0.05197900 -0.05704100 0.01605000
v -0.05129500 -0.05773000 0.01946400
v -0.03353400 -0.08231600 0.00854200
v -0.06358800 -0.07070500 0.00000000
v -0.06427100 -0.07480200 0.03039300
v -0.03353400 -0.07958200 0.02698200
v -0.03353400 -0.06455900 0.00922500
v -0.06427100 -0.05841000 0.00922500
v -0.03353400 -0.06797300 0.02629600
v -0.06563800 -0.06251000 0.02561300
v -0.06495500 -0.08231600 0.00307600
v -0.04992800 -0.08709600 0.02287900
v -0.04925100 -0.07753300 0.00034400
v -0.06598300 -0.08641400 0.02151300
v -0.04925100 -0.06387600 0.00307600
v -0.05061200 -0.06660700 0.02971400
v -0.04992800 -0.08709600 0.00854200
v -0.06563800 -0.06251000 0.00512400
v -0.03353400 -0.07139100 0.00512400
v -0.03353400 -0.08436500 0.02083300
v -0.05334300 -0.08026500 0.02971400
v -0.03353400 -0.06319300 0.02083300
v -0.04992800 -0.05841000 0.00990800
v -0.05129500 -0.06045900 0.02493000
v -0.06358800 -0.05841000 0.02083000
v -0.05265900 -0.07207000 0.03108200
v -0.06290700 -0.08368200 0.02697900
v -0.05129500 -0.07207000 0.00000000
v -0.05061200 -0.08299600 0.00307600
v -0.06427100 -0.06729300 0.02971400
v -0.06598300 -0.07002500 0.02766500
v -0.06598300 -0.08641400 0.01263900
v -0.05265900 -0.08846500 0.01809900
v -0.03353400 -0.08436500 0.01127300
v -0.03353400 -0.07958200 0.00581000
v -0.06222400 -0.06455600 0.00171000
v -0.06154000 -0.07684700 0.00000000
v -0.06154000 -0.08572800 0.00580700
v -0.03353400 -0.06319300 0.01127300
v -0.05129500 -0.06114100 0.00512400
v -0.06563800 -0.07070500 0.00171000
v -0.06427100 -0.06251000 0.02697900
v -0.06222400 -0.05704100 0.01195600
v -0.06598300 -0.07002500 0.01127300
v -0.05061200 -0.06660700 0.00102700
v -0.04992800 -0.08231600 0.02834800
v -0.06598300 -0.07957900 0.02766500
v -0.06563800 -0.05977600 0.01809900
v -0.06222400 -0.08777600 0.02083000
v -0.05197900 -0.08846500 0.01400500
v -0.03353400 -0.07002200 0.02698200
v -0.06222400 -0.05909300 0.00717300
v -0.03353400 -0.08367900 0.02288200
v -0.04992800 -0.07753300 0.03039300
v -0.06290700 -0.08163000 0.00171000
v -0.04992800 -0.08504800 0.00512400
v -0.03353400 -0.06660700 0.00717600
v -0.06358800 -0.08777600 0.01059000
v -0.06154000 -0.07753300 0.03039300
v -0.06290700 -0.05704100 0.01605000
v -0.05129500 -0.06319000 0.02766500
v -0.06222400 -0.08572800 0.02493000
v -0.05061200 -0.05909300 0.02287900
vn -0.25876075 -0.96514450 -0.03922971
vn 0.14056113 0.98995369 0.01530531
vn 0.13331594 0.95748290 0.25583853
vn 0.77856556 -0.47486429 -0.41029205
vn -0.36265354 0.10794456 -0.92565133
vn -0.48956732 -0.06048446 0.86986520
vn 0.70339169 -0.28008688 0.65329279
vn 0.78419297 0.48210716 -0.39065850
vn -0.58317891 0.75679289 -0.29524038
vn 0.73860414 0.36423906 0.56726874
vn -0.83337296 0.42761408 0.35019381
vn -0.70811023 -0.42984034 -0.56019388
vn 0.10774711 -0.89194769 0.43911260
vn 0.17201714 -0.23056794 -0.95773093
vn -0.76782972 -0.59145411 0.24621041
vn 0.20958315 0.60261294 -0.77002114
vn 0.10979432 0.37380223 0.92098703
vn 0.12071576 -0.92382138 -0.36329295
vn -0.78705140 0.42326726 -0.44877046
vn 0.76886008 0.10297578 -0.63107066
vn 0.74537115 -0.65713065 0.11225489
vn 0.00902171 -0.41916417 0.90786563
vn 0.74475706 0.61952935 0.24803288
vn 0.19633621 0.91792174 -0.34477787
vn 0.09967505 0.76858441 0.63193582
vn -0.37991939 0.85906438 0.34303011
vn 0.05969271 0.06516288 0.99608764
vn -0.29213235 -0.59853727 0.74593018
vn 0.12669685 0.07476052 -0.98912020
vn 0.11502099 -0.58988672 -0.79925205
vn -0.46265500 0.26958438 0.84455587
vn -0.94837181 0.05301400 0.31269863
vn -0.86880368 -0.48470941 -0.10117783
vn 0.07552323 -0.98952199 0.12305474
vn 0.72918845 -0.65166809 -0.20883701
vn 0.74446546 -0.29479765 -0.59905386
vn -0.22631233 0.48450233 -0.84500900
vn -0.20063408 -0.17383593 -0.96411982
vn -0.14415396 -0.81877664 -0.55571975
vn 0.75769056 0.62182842 -0.19807684
vn 0.13537334 0.75208053 -0.64501856
vn -0.86827680 0.05994855 -0.49244449
vn -0.32684606 0.62932270 0.70507064
vn -0.17747824 0.96738012 -0.18076831
vn -0.99975673 0.01479804 -0.01635545
vn 0.15031117 0.36175934 -0.92007431
vn 0.09849708 -0.59797644 0.79543856
vn -0.81568705 -0.25111683 0.52114775
vn -0.89930159 0.43291920 0.06194851
vn -0.15213836 -0.94972772 0.27362598
vn 0.09843075 -0.99074255 -0.09349108
vn 0.74731339 0.10671680 0.65584619
vn -0.12395201 0.81220073 -0.57005777
vn 0.72596398 -0.58232600 0.36588623
vn 0.12159944 -0.20203162 0.97180080
vn -0.23621013 -0.45975849 -0.85605310
vn 0.13304419 -0.76660541 -0.62818420
vn 0.77566872 0.35786968 -0.51987241
vn -0.35566086 -0.88545442 -0.29912511
vn -0.15531011 -0.28009052 0.94732680
vn -0.35546899 0.93040906 0.08933522
vn 0.10141098 0.61945024 0.77845823
vn -0.16565713 -0.79695561 0.58087818
vn 0.13608713 0.87233874 0.46958004
f 5//5 42//42 19//19
f 34//34 21//21 13//13
f 15//15 1//1 50//50
f 50//50 1//1 34//34
f 50//50 63//63 15//15
f 34//34 13//13 50//50
f 50//50 13//13 63//63
f 39//39 18//18 59//59
f 38//38 56//56 5//5
f 14//14 56//56 38//38
f 5//5 29//29 38//38
f 38//38 29//29 14//14
f 12//12 42//42 5//5
f 5//5 56//56 12//12
f 12//12 56//56 39//39
f 39//39 59//59 12//12
f 30//30 56//56 14//14
f 14//14 36//36 30//30
f 20//20 36//36 14//14
f 14//14 29//29 20//20
f 2//2 61//61 3//3
f 3//3 23//23 2//2
f 53//53 19//19 9//9
f 49//49 61//61 9//9
f 9//9 19//19 49//49
f 40//40 24//24 2//2
f 2//2 23//23 40//40
f 28//28 48//48 15//15
f 15//15 63//63 28//28
f 49//49 19//19 45//45
f 45//45 32//32 49//49
f 45//45 19//19 42//42
f 6//6 32//32 48//48
f 54//54 13//13 21//21
f 51//51 35//35 21//21
f 51//51 21//21 34//34
f 18//18 35//35 51//51
f 34//34 1//1 51//51
f 1//1 59//59 51//51
f 51//51 59//59 18//18
f 42//42 12//12 33//33
f 33//33 45//45 42//42
f 33//33 12//12 59//59
f 33//33 1//1 15//15
f 33//33 59//59 1//1
f 57//57 36//36 4//4
f 57//57 30//30 36//36
f 4//4 35//35 57//57
f 57//57 35//35 18//18
f 57//57 18//18 39//39
f 39//39 56//56 57//57
f 56//56 30//30 57//57
f 26//26 61//61 49//49
f 26//26 3//3 61//61
f 25//25 26//26 43//43
f 25//25 10//10 23//23
f 53//53 24//24 41//41
f 37//37 19//19 53//53
f 53//53 41//41 37//37
f 37//37 41//41 16//16
f 5//5 19//19 37//37
f 44//44 24//24 53//53
f 53//53 9//9 44//44
f 2//2 24//24 44//44
f 44//44 61//61 2//2
f 44//44 9//9 61//61
f 52//52 10//10 17//17
f 7//7 55//55 47//47
f 63//63 13//13 47//47
f 47//47 28//28 63//63
f 47//47 54//54 7//7
f 13//13 54//54 47//47
f 27//27 52//52 17//17
f 7//7 52//52 27//27
f 27//27 55//55 7//7
f 32//32 6//6 31//31
f 6//6 27//27 31//31
f 17//17 43//43 31//31
f 31//31 27//27 17//17
f 55//55 27//27 60//60
f 60//60 27//27 6//6
f 48//48 28//28 60//60
f 60//60 6//6 48//48
f 11//11 26//26 49//49
f 43//43 26//26 11//11
f 49//49 32//32 11//11
f 32//32 31//31 11//11
f 11//11 31//31 43//43
f 62//62 43//43 17//17
f 62//62 25//25 43//43
f 17//17 10//10 62//62
f 10//10 25//25 62//62
f 3//3 26//26 64//64
f 26//26 25//25 64//64
f 23//23 3//3 64//64
f 64//64 25//25 23//23
f 58//58 16//16 8//8
f 16//16 41//41 8//8
f 24//24 40//40 8//8
f 8//8 41//41 24//24
f 46//46 37//37 16//16
f 46//46 20//20 29//29
f 46//46 29//29 5//5
f 5//5 37//37 46//46
f 58//58 20//20 46//46
f 46//46 16//16 58//58
f 22//22 47//47 55//55
f 55//55 60//60 22//22
f 28//28 47//47 22//22
f 22//22 60//60 28//28
f 48//48 32//32 33//33
f 15//15 48//48 33//33
f 32//32 45//45 33//33
f 4//4 36//36 8//8
f 8//8 20//20 58//58
f 8//8 52//52 7//7
f 8//8 35//35 4//4
f 7//7 54//54 8//8
f 21//21 35//35 8//8
f 36//36 20//20 8//8
f 23//23 10//10 8//8
f 8//8 40//40 23//23
f 8//8 54//54 21//21
f 10//10 52//52 8//8


