# https://github.com/mikedh/trimesh
v 0.01975200 -0.08641600 0.02766500
v 0.05322300 -0.05499500 0.01332600
v 0.05322300 -0.05499500 0.00307500
v 0.01906700 -0.06524400 0.00581000
v 0.04024000 -0.05499500 0.03108100
v 0.01975200 -0.08573000 0.00649100
v 0.01906700 -0.06661000 0.03039700
v 0.04229000 -0.06797500 0.02971500
v 0.03614500 -0.07548400 0.00649100
v 0.04229000 -0.05499500 0.00239100
v 0.05048800 -0.05636100 0.03176500
v 0.01906700 -0.08367800 0.03039700
v 0.01906700 -0.07616400 0.00376000
v 0.03204900 -0.07821500 0.02903100
v 0.04092300 -0.06729000 0.00307500
v 0.04775600 -0.06318900 0.00717600
v 0.03887600 -0.05499500 0.02834700
v 0.05253800 -0.05567800 0.03039700
v 0.02726800 -0.08231200 0.00854100
v 0.01906700 -0.06524400 0.02766500
v 0.03955800 -0.05499500 0.00854100
v 0.01906700 -0.07138700 0.03108100
v 0.01906700 -0.06865500 0.00376000
v 0.01906700 -0.08641600 0.00854100
v 0.04570700 -0.06182400 0.03176500
v 0.04160800 -0.05499500 0.03176500
v 0.05253800 -0.05704400 0.00376000
v 0.04024000 -0.07070400 0.02561500
v 0.03750600 -0.06319200 0.00239100
v 0.03750600 -0.07343200 0.00444100
v 0.02795000 -0.08163300 0.02629700
v 0.01975200 -0.08299800 0.00512500
v 0.05253800 -0.05567800 0.00239100
v 0.04912100 -0.06045800 0.02766500
v 0.02795000 -0.08094700 0.02971500
v 0.01906700 -0.07821500 0.03108100
v 0.05185600 -0.05499500 0.03108100
v 0.04229000 -0.06934100 0.00649100
v 0.02111900 -0.08573000 0.00717600
v 0.03614500 -0.06319200 0.03176500
v 0.04092300 -0.05499500 0.00307500
v 0.03204900 -0.07890100 0.01059100
v 0.05253800 -0.05704400 0.00990700
v 0.02248400 -0.08504400 0.02766500
v 0.01906700 -0.08573000 0.02971500
v 0.03204900 -0.07685000 0.03039700
v 0.03682300 -0.07411800 0.02629700
v 0.01906700 -0.06661000 0.00444100
vn -0.07979698 -0.98455746 0.15581739
vn 0.82222620 0.56889335 0.01744780
vn 0.75560454 0.52346687 -0.39375655
vn -0.79278116 0.55586628 -0.25002142
vn -0.25209029 0.89479432 0.36850184
vn -0.35043168 -0.66914487 -0.65531884
vn -0.72431782 0.33143272 0.60457924
vn 0.65827460 -0.62863762 0.41411266
vn 0.61889929 -0.75950805 -0.20027780
vn -0.06180623 0.70293931 -0.70855933
vn 0.34915941 -0.08896980 0.93283015
vn -0.63799162 -0.19421876 0.74514815
vn -0.68315055 -0.10041235 -0.72334133
vn 0.61024585 -0.71978801 0.33091573
vn 0.17675240 -0.25581125 -0.95043106
vn 0.76134562 -0.64729056 -0.03698344
vn -0.26959746 0.96016393 0.07350127
vn 0.93740500 -0.01334241 0.34798542
vn 0.53649349 -0.82717372 -0.16720754
vn -0.82235427 0.55324967 0.13284678
vn -0.24011407 0.97015447 -0.03384584
vn -0.71596089 0.03141198 0.69743336
vn -0.71998908 0.07718124 -0.68968021
vn -0.58743615 -0.79646553 -0.14339257
vn 0.32853459 -0.30369074 0.89433604
vn -0.05686777 0.70409714 0.70782291
vn 0.81300844 -0.51966398 -0.26261496
vn 0.72600598 -0.68507977 0.05984171
vn -0.01833183 -0.04280757 -0.99891514
vn 0.45439897 -0.56956194 -0.68492392
vn 0.57323724 -0.81587321 0.07582856
vn -0.45450558 -0.33536293 -0.82520081
vn 0.47498075 0.05254914 -0.87842579
vn 0.76947728 -0.63181169 0.09337401
vn 0.42534045 -0.65791122 0.62148076
vn -0.68460585 -0.06338089 0.72615266
vn 0.48374864 0.63529984 0.60198120
vn 0.72159441 -0.67804518 -0.13984367
vn 0.37188347 -0.85650485 -0.35791357
vn -0.02296896 -0.00591430 0.99971868
vn -0.26687575 0.89320586 -0.36188481
vn 0.61638515 -0.78738802 -0.00945841
vn 0.87762870 -0.47918743 0.01213557
vn 0.47270764 -0.85419946 0.21654277
vn -0.49968169 -0.64092368 0.58269636
vn 0.33938553 -0.41728244 0.84302599
vn 0.69021202 -0.71895653 0.08190775
vn -0.76692049 0.30696018 -0.56356758
f 24//24 39//39 1//1
f 20//20 17//17 4//4
f 11//11 37//37 26//26
f 18//18 37//37 11//11
f 2//2 37//37 18//18
f 1//1 39//39 44//44
f 31//31 35//35 44//44
f 10//10 3//3 33//33
f 24//24 13//13 32//32
f 33//33 3//3 27//27
f 27//27 30//30 33//33
f 38//38 30//30 27//27
f 17//17 20//20 5//5
f 25//25 18//18 11//11
f 8//8 25//25 46//46
f 18//18 25//25 8//8
f 4//4 17//17 21//21
f 6//6 30//30 39//39
f 32//32 30//30 6//6
f 39//39 24//24 6//6
f 24//24 32//32 6//6
f 33//33 30//30 15//15
f 15//15 32//32 13//13
f 15//15 30//30 32//32
f 9//9 38//38 47//47
f 9//9 30//30 38//38
f 39//39 30//30 9//9
f 2//2 18//18 43//43
f 46//46 25//25 12//12
f 12//12 25//25 36//36
f 26//26 5//5 7//7
f 7//7 5//5 20//20
f 36//36 25//25 40//40
f 47//47 8//8 14//14
f 14//14 35//35 31//31
f 46//46 35//35 14//14
f 14//14 8//8 46//46
f 14//14 9//9 47//47
f 10//10 23//23 48//48
f 4//4 21//21 41//41
f 41//41 48//48 4//4
f 10//10 48//48 41//41
f 29//29 15//15 13//13
f 13//13 23//23 29//29
f 29//29 23//23 10//10
f 29//29 10//10 33//33
f 33//33 15//15 29//29
f 39//39 9//9 19//19
f 19//19 44//44 39//39
f 31//31 44//44 19//19
f 18//18 8//8 34//34
f 34//34 43//43 18//18
f 45//45 35//35 46//46
f 46//46 12//12 45//45
f 1//1 44//44 45//45
f 45//45 44//44 35//35
f 45//45 24//24 1//1
f 36//36 40//40 22//22
f 22//22 40//40 26//26
f 26//26 7//7 22//22
f 42//42 14//14 31//31
f 9//9 14//14 42//42
f 31//31 19//19 42//42
f 42//42 19//19 9//9
f 28//28 34//34 8//8
f 47//47 38//38 28//28
f 28//28 8//8 47//47
f 43//43 34//34 16//16
f 27//27 43//43 16//16
f 38//38 27//27 16//16
f 16//16 28//28 38//38
f 34//34 28//28 16//16
f 43//43 3//3 2//2
f 43//43 27//27 3//3
f 40//40 25//25 11//11
f 11//11 26//26 40//40
f 2//2 3//3 41//41
f 41//41 37//37 2//2
f 17//17 5//5 41//41
f 41//41 26//26 37//37
f 3//3 10//10 41//41
f 41//41 5//5 26//26
f 41//41 21//21 17//17
f 22//22 7//7 20//20
f 22//22 20//20 4//4
f 22//22 13//13 24//24
f 4//4 48//48 22//22
f 22//22 23//23 13//13
f 22//22 12//12 36//36
f 24//24 45//45 22//22
f 22//22 48//48 23//23
f 22//22 45//45 12//12


