# https://github.com/mikedh/trimesh
v 0.01360200 0.09017300 0.02015000
v -0.01987200 0.08298800 0.01400700
v -0.01713900 0.01878600 0.01469000
v 0.00266800 0.08914500 0.00376000
v 0.01018400 0.01878600 0.01195700
v -0.00279400 0.02630600 0.02698000
v -0.01372200 0.09017300 0.02698000
v -0.01098900 0.01878600 0.00717700
v -0.01372200 0.09017300 0.00444400
v 0.00745100 0.01878600 0.02493000
v 0.00335200 0.09017300 0.02903000
v -0.01508800 0.01947400 0.02288200
v 0.01155000 0.09017300 0.00854200
v 0.00540000 0.01878600 0.00785800
v -0.01987200 0.09017300 0.01946700
v -0.01850500 0.08845700 0.00854200
v 0.01086900 0.01878600 0.02083100
v 0.01018400 0.08845700 0.02629700
v -0.00552400 0.08777600 0.00307400
v -0.00074300 0.01878600 0.00649400
v -0.01030800 0.01878600 0.02561300
v -0.00689000 0.08845700 0.02903000
v 0.01360200 0.08777600 0.01332300
v -0.01577000 0.01878600 0.01059200
v 0.00403400 0.01878600 0.02629700
v -0.01782100 0.08709500 0.02356500
v 0.00881800 0.08230700 0.00649400
v -0.01713900 0.01878600 0.01810000
v -0.01304000 0.01878600 0.00785800
v 0.00813300 0.09017300 0.02766400
v 0.00881800 0.01947400 0.00990900
v 0.01086900 0.01878600 0.01332300
v -0.00757500 0.01878600 0.00649400
v 0.01155000 0.08982600 0.02493200
v 0.00540000 0.09017300 0.00444400
v -0.01987200 0.09017300 0.01195700
v -0.01098900 0.08641400 0.00376000
v -0.00006200 0.08093800 0.02903000
v 0.01360200 0.08230700 0.01810000
v 0.00949900 0.02357400 0.02356500
v -0.01713900 0.08368300 0.00717700
v -0.00757500 0.01878600 0.02629700
v -0.01645400 0.02220500 0.02083100
v -0.00211300 0.09017300 0.00307400
v -0.00962300 0.08641400 0.02834700
v 0.01291700 0.08504500 0.02220100
v 0.01291700 0.08572600 0.01127300
v -0.01645400 0.01878600 0.01195700
v -0.01577000 0.08777600 0.02561300
v -0.01304000 0.01878600 0.02424900
v 0.00608500 0.08641400 0.02834700
v -0.00757500 0.08914500 0.00307400
v 0.00335200 0.02015500 0.00717700
v -0.01577000 0.08641400 0.00581000
v -0.01987200 0.08298800 0.01741700
v -0.01918700 0.08368300 0.02083100
v 0.01155000 0.03176800 0.01673600
v 0.01018400 0.08845700 0.00717700
v 0.00471900 0.02152400 0.02629700
v -0.00483900 0.08298800 0.02903000
v 0.00677000 0.08572600 0.00512700
v 0.00677000 0.01878600 0.00854200
v 0.00335200 0.08777600 0.02903000
vn 0.73271824 0.66745007 0.13279452
vn -0.99706515 -0.03061932 -0.07016799
vn -0.71202751 -0.69674366 -0.08697756
vn 0.19059138 0.04559251 -0.98061014
vn 0.60337633 -0.70734031 -0.36824814
vn -0.01218297 -0.05015133 0.99866732
vn -0.35821300 0.66943691 0.65079772
vn -0.18036663 -0.71096163 -0.67970688
vn -0.33393627 0.66082005 -0.67216325
vn 0.41513331 -0.68829249 0.59490990
vn 0.09214870 0.68005873 0.72734362
vn -0.70138158 -0.41393996 0.58027372
vn 0.60943458 0.66392974 -0.43334375
vn 0.25295763 -0.70434115 -0.66326162
vn -0.72599944 0.65685125 0.20364491
vn -0.80478115 0.20872579 -0.55566253
vn 0.70670450 -0.66733540 0.23501535
vn 0.63350239 0.01650180 0.77356474
vn 0.00018064 -0.03312195 -0.99945130
vn 0.06732990 -0.70465433 -0.70634903
vn -0.24827797 -0.69707239 0.67264265
vn -0.12499349 0.26037495 0.95738264
vn 0.96932266 0.17121602 -0.17634813
vn -0.58658166 -0.69140663 -0.42175684
vn 0.13364165 -0.69444788 0.70702337
vn -0.79467781 0.09780565 0.59910035
vn 0.55033648 -0.04098474 -0.83393646
vn -0.71126976 -0.68932544 0.13757095
vn -0.38573265 -0.67764706 -0.62610285
vn 0.33495279 0.67038455 0.66211116
vn 0.68155153 -0.26882434 -0.68060339
vn 0.71651681 -0.67596065 -0.17228132
vn -0.07006211 -0.70344326 -0.70728982
vn 0.67606310 0.54736766 0.49328220
vn 0.26796669 0.67180736 -0.69055683
vn -0.72944458 0.66057634 -0.17762178
vn -0.23119867 -0.03079177 -0.97241917
vn 0.02844459 -0.02811254 0.99919998
vn 0.99838660 -0.03211758 0.04682591
vn 0.75481551 -0.05629096 0.65351731
vn -0.72376058 -0.04147344 -0.68880373
vn -0.09825516 -0.70016787 0.70718518
vn -0.91082642 -0.06469648 0.40768811
vn 0.05286667 0.67907693 -0.73216094
vn -0.28056731 -0.01142008 0.95976641
vn 0.92782284 -0.02512163 0.37217426
vn 0.91969100 -0.01735475 -0.39225919
vn -0.66932283 -0.70045949 -0.24771649
vn -0.65651033 0.08427648 0.74959433
vn -0.37830668 -0.70690548 0.59763592
vn 0.30018243 -0.02235033 0.95361993
vn -0.10494261 0.23066985 -0.96735643
vn 0.22943280 -0.08691767 -0.96943587
vn -0.60996727 0.00143287 -0.79242531
vn -0.99747525 -0.02920745 0.06473067
vn -0.92164571 -0.03466273 0.38648116
vn 0.99910991 -0.04158290 -0.00708892
vn 0.61470105 0.05628151 -0.78674965
vn 0.28759573 -0.04775804 0.95656043
vn -0.04808176 -0.02368544 0.99856254
vn 0.43131744 -0.02588689 -0.90182877
vn 0.36798249 -0.70823054 -0.60249347
vn 0.12425642 -0.00922456 0.99220726
f 36//36 3//3 2//2
f 3//3 36//36 48//48
f 44//44 20//20 19//19
f 34//34 46//46 1//1
f 39//39 23//23 1//1
f 19//19 20//20 33//33
f 41//41 54//54 29//29
f 26//26 15//15 56//56
f 7//7 15//15 26//26
f 1//1 23//23 13//13
f 23//23 47//47 13//13
f 31//31 58//58 13//13
f 35//35 13//13 58//58
f 16//16 54//54 41//41
f 16//16 48//48 36//36
f 37//37 33//33 8//8
f 41//41 29//29 24//24
f 24//24 16//16 41//41
f 48//48 16//16 24//24
f 28//28 56//56 15//15
f 15//15 55//55 28//28
f 22//22 7//7 45//45
f 45//45 7//7 21//21
f 26//26 12//12 49//49
f 49//49 7//7 26//26
f 11//11 7//7 22//22
f 11//11 63//63 51//51
f 61//61 35//35 58//58
f 9//9 16//16 36//36
f 54//54 16//16 9//9
f 9//9 29//29 54//54
f 8//8 29//29 9//9
f 9//9 37//37 8//8
f 12//12 28//28 50//50
f 21//21 7//7 50//50
f 50//50 49//49 12//12
f 7//7 49//49 50//50
f 56//56 28//28 43//43
f 43//43 28//28 12//12
f 26//26 56//56 43//43
f 43//43 12//12 26//26
f 30//30 34//34 1//1
f 30//30 11//11 51//51
f 25//25 6//6 42//42
f 22//22 45//45 42//42
f 42//42 45//45 21//21
f 25//25 63//63 38//38
f 38//38 6//6 25//25
f 25//25 10//10 59//59
f 51//51 63//63 59//59
f 59//59 63//63 25//25
f 59//59 30//30 51//51
f 10//10 30//30 59//59
f 46//46 34//34 17//17
f 1//1 46//46 17//17
f 17//17 39//39 1//1
f 20//20 53//53 14//14
f 14//14 61//61 62//62
f 14//14 53//53 35//35
f 35//35 61//61 14//14
f 44//44 35//35 4//4
f 35//35 53//53 4//4
f 20//20 44//44 4//4
f 4//4 53//53 20//20
f 27//27 61//61 58//58
f 62//62 61//61 27//27
f 27//27 58//58 31//31
f 31//31 62//62 27//27
f 52//52 9//9 44//44
f 52//52 44//44 19//19
f 37//37 9//9 52//52
f 19//19 33//33 52//52
f 33//33 37//37 52//52
f 34//34 30//30 18//18
f 18//18 30//30 10//10
f 6//6 38//38 60//60
f 22//22 42//42 60//60
f 60//60 42//42 6//6
f 10//10 17//17 40//40
f 40//40 17//17 34//34
f 34//34 18//18 40//40
f 40//40 18//18 10//10
f 32//32 47//47 23//23
f 5//5 62//62 31//31
f 31//31 13//13 5//5
f 5//5 13//13 47//47
f 47//47 32//32 5//5
f 23//23 39//39 57//57
f 57//57 32//32 23//23
f 17//17 32//32 57//57
f 39//39 17//17 57//57
f 55//55 15//15 36//36
f 55//55 36//36 2//2
f 28//28 55//55 2//2
f 2//2 3//3 28//28
f 36//36 15//15 30//30
f 30//30 35//35 44//44
f 30//30 9//9 36//36
f 15//15 7//7 30//30
f 1//1 13//13 30//30
f 13//13 35//35 30//30
f 7//7 11//11 30//30
f 44//44 9//9 30//30
f 63//63 11//11 60//60
f 60//60 11//11 22//22
f 60//60 38//38 63//63
f 20//20 14//14 5//5
f 48//48 24//24 5//5
f 3//3 48//48 5//5
f 5//5 33//33 20//20
f 5//5 28//28 3//3
f 8//8 33//33 5//5
f 5//5 29//29 8//8
f 21//21 50//50 5//5
f 5//5 24//24 29//29
f 5//5 42//42 21//21
f 5//5 10//10 25//25
f 5//5 50//50 28//28
f 25//25 42//42 5//5
f 5//5 17//17 10//10
f 5//5 14//14 62//62
f 5//5 32//32 17//17


