# https://github.com/mikedh/trimesh
v 0.01291800 -0.01878200 0.01810200
v -0.01918900 -0.02902800 0.01400800
v -0.01918900 -0.02902800 0.01673800
v -0.01713600 0.01878600 0.01810000
v -0.00074700 0.01878600 0.00649200
v 0.00403700 0.01878600 0.02629900
v -0.01303800 -0.03107900 0.02698100
v 0.01018400 -0.03244900 0.00785800
v 0.00950200 -0.03244900 0.02698100
v -0.01645400 -0.03244900 0.00717600
v 0.01018400 0.01878600 0.01195700
v -0.01303800 0.01878600 0.00785800
v -0.01030400 0.01809900 0.02561500
v 0.01086600 0.01878600 0.02083200
v -0.01030400 -0.02356700 0.00512800
v -0.01781800 -0.03244900 0.02424900
v -0.00347800 -0.01400300 0.02835000
v 0.00061700 -0.02356700 0.00512800
v -0.01645400 0.01878600 0.01195700
v 0.01223300 -0.03176200 0.02424900
v 0.00676800 0.01878600 0.00854300
v 0.01223300 -0.03176200 0.01059100
v 0.00540400 -0.02424900 0.02834800
v -0.01645400 0.01878600 0.02083200
v 0.00745000 0.01878600 0.02493300
v -0.01781800 -0.02698200 0.00854300
v -0.01918900 -0.02288500 0.02015000
v 0.00471900 -0.02288500 0.00580800
v -0.00757600 -0.02424900 0.02835000
v -0.01508700 -0.02561300 0.02629700
v -0.00757600 0.01878600 0.00649200
v -0.00757600 0.01878600 0.02629700
v -0.01918900 -0.02356700 0.01264100
v 0.01018400 -0.02971500 0.02698100
v 0.01086600 0.01878600 0.01400500
v 0.01291800 -0.02356700 0.01332300
v -0.01303800 0.01878600 0.02424900
v -0.01098900 -0.02151600 0.02766300
v -0.00689400 -0.01604900 0.00512800
v -0.01508700 -0.03107900 0.00649200
v 0.01291800 -0.02766400 0.02151600
v 0.01018400 -0.02766400 0.00785800
v 0.00745000 -0.03244900 0.00717600
v -0.01850400 -0.03244900 0.01127500
v 0.01018400 0.01878600 0.02219800
v -0.01713600 -0.02834600 0.02493100
v -0.01303800 -0.02151600 0.00581000
v -0.01713600 0.01878600 0.01469000
v -0.00074700 0.01126800 0.02698100
v 0.00130300 -0.01468500 0.02835000
v -0.01577200 0.01878600 0.01059100
v -0.01508700 -0.03244900 0.02629700
v -0.01850400 -0.02698200 0.02288300
v 0.00267000 0.01878600 0.00717600
v 0.01155100 -0.03244900 0.02561500
v -0.00757600 -0.01946400 0.02835000
v -0.01645400 -0.02698200 0.00717600
v 0.00061700 -0.01946400 0.00512800
v -0.01918900 -0.02015100 0.01605600
v 0.00813500 -0.02561300 0.02766600
v 0.01223300 -0.02766400 0.01059100
v 0.00403700 -0.02971500 0.02766600
v -0.00484200 -0.02493100 0.00512800
v -0.01850400 -0.02630000 0.00990900
vn 0.99868445 0.03885856 0.03345712
vn -0.99395127 -0.08727837 -0.06665851
vn -0.99008417 -0.13113422 0.05037022
vn -0.70802556 0.70100006 0.08543261
vn 0.06977168 0.70014690 -0.71058162
vn 0.14188138 0.69267609 0.70715593
vn -0.15385209 -0.20020342 0.96759916
vn 0.45234051 -0.65299633 -0.60744041
vn 0.21839043 -0.69683874 0.68317010
vn -0.44932679 -0.66328351 -0.59846505
vn 0.62498782 0.68014090 -0.38314304
vn -0.36144103 0.67309495 -0.64521591
vn -0.33882735 0.21521729 0.91590258
vn 0.71425036 0.67931824 0.16844335
vn -0.11613435 -0.04158765 -0.99236247
vn -0.65325999 -0.64803813 0.39153284
vn -0.02631538 0.03596930 0.99900636
vn 0.08234360 -0.07548788 -0.99374097
vn -0.66549163 0.70496025 -0.24525892
vn 0.92267809 -0.32743766 0.20359206
vn 0.38262735 0.67930945 -0.62620682
vn 0.81749148 -0.51311486 -0.26157373
vn 0.12408980 -0.02678367 0.99190945
vn -0.64222728 0.67664232 0.36013788
vn 0.39765002 0.68920983 0.60569322
vn -0.82340180 -0.00947756 -0.56737963
vn -0.98660509 0.01795697 0.16213559
vn 0.26574838 -0.00612384 -0.96402297
vn -0.08967952 -0.06579770 0.99379487
vn -0.47099516 0.03226571 0.88154551
vn -0.08539425 0.69657575 -0.71238336
vn -0.10384812 0.70275641 0.70381034
vn -0.98825333 0.02018168 -0.15148615
vn 0.52214575 -0.00898828 0.85280890
vn 0.71229152 0.69218302 -0.11629042
vn 0.98801082 0.01055461 -0.15402343
vn -0.41009553 0.69605794 0.58934286
vn -0.27984927 0.02466515 0.95972705
vn -0.03061235 0.02778759 -0.99914500
vn -0.20278721 -0.20437948 -0.95765671
vn 0.99096090 -0.03569212 0.12931580
vn 0.60482691 0.01997626 -0.79610637
vn 0.11985137 -0.72357925 -0.67975637
vn -0.69225486 -0.70078783 -0.17227774
vn 0.58517079 0.69542870 0.41707801
vn -0.69789686 0.02640719 0.71571127
vn -0.32164586 0.03301031 -0.94628445
vn -0.70815546 0.70084345 -0.08564052
vn 0.00801355 0.06412518 0.99790969
vn 0.05354133 0.03448085 0.99797014
vn -0.58328022 0.69552214 -0.41956303
vn -0.30045974 -0.67702365 0.67183549
vn -0.92941806 -0.00592333 0.36898100
vn 0.18006330 0.70917471 -0.68165126
vn 0.61293565 -0.66040748 0.43378780
vn -0.11640191 0.02304093 0.99293490
vn -0.57078539 0.02760758 -0.82063504
vn 0.09823009 0.02175286 -0.99492596
vn -0.99930327 0.03658312 -0.00739192
vn 0.31757202 0.01441527 0.94812458
vn 0.89948132 0.01834952 -0.43657376
vn 0.00694146 -0.19448141 0.98088164
vn 0.00603284 -0.12210221 -0.99249920
vn -0.93748145 -0.00849224 -0.34793162
f 59//59 27//27 4//4
f 4//4 27//27 24//24
f 1//1 14//14 41//41
f 14//14 20//20 41//41
f 48//48 59//59 4//4
f 10//10 40//40 43//43
f 22//22 41//41 20//20
f 20//20 55//55 22//22
f 35//35 14//14 1//1
f 37//37 24//24 46//46
f 7//7 52//52 9//9
f 44//44 3//3 2//2
f 10//10 44//44 26//26
f 47//47 15//15 40//40
f 12//12 31//31 47//47
f 47//47 31//31 15//15
f 50//50 23//23 6//6
f 29//29 23//23 50//50
f 6//6 32//32 49//49
f 49//49 32//32 17//17
f 17//17 50//50 49//49
f 49//49 50//50 6//6
f 17//17 32//32 56//56
f 38//38 56//56 32//32
f 29//29 56//56 38//38
f 38//38 7//7 29//29
f 36//36 35//35 1//1
f 1//1 41//41 36//36
f 41//41 22//22 36//36
f 61//61 36//36 22//22
f 11//11 35//35 61//61
f 35//35 36//36 61//61
f 53//53 24//24 27//27
f 53//53 46//46 24//24
f 27//27 3//3 53//53
f 62//62 7//7 9//9
f 29//29 7//7 62//62
f 9//9 23//23 62//62
f 62//62 23//23 29//29
f 45//45 20//20 14//14
f 45//45 55//55 20//20
f 60//60 23//23 9//9
f 60//60 25//25 6//6
f 6//6 23//23 60//60
f 10//10 26//26 57//57
f 12//12 47//47 57//57
f 57//57 51//51 12//12
f 26//26 51//51 57//57
f 40//40 10//10 57//57
f 57//57 47//47 40//40
f 33//33 44//44 2//2
f 59//59 48//48 33//33
f 33//33 48//48 19//19
f 54//54 58//58 5//5
f 43//43 18//18 28//28
f 28//28 18//18 58//58
f 28//28 54//54 21//21
f 58//58 54//54 28//28
f 39//39 31//31 5//5
f 5//5 58//58 39//39
f 15//15 31//31 39//39
f 13//13 32//32 37//37
f 13//13 38//38 32//32
f 37//37 46//46 30//30
f 30//30 46//46 52//52
f 30//30 13//13 37//37
f 38//38 13//13 30//30
f 52//52 7//7 30//30
f 7//7 38//38 30//30
f 52//52 46//46 16//16
f 46//46 53//53 16//16
f 16//16 53//53 3//3
f 3//3 44//44 16//16
f 34//34 45//45 25//25
f 55//55 45//45 34//34
f 25//25 60//60 34//34
f 9//9 55//55 34//34
f 34//34 60//60 9//9
f 64//64 33//33 19//19
f 19//19 51//51 64//64
f 64//64 51//51 26//26
f 64//64 26//26 44//44
f 44//44 33//33 64//64
f 40//40 15//15 63//63
f 43//43 40//40 63//63
f 63//63 18//18 43//43
f 42//42 28//28 21//21
f 42//42 21//21 11//11
f 11//11 61//61 42//42
f 43//43 28//28 8//8
f 28//28 42//42 8//8
f 8//8 22//22 55//55
f 29//29 50//50 56//56
f 56//56 50//50 17//17
f 27//27 59//59 33//33
f 2//2 3//3 33//33
f 33//33 3//3 27//27
f 5//5 31//31 54//54
f 14//14 35//35 54//54
f 12//12 51//51 54//54
f 4//4 24//24 54//54
f 54//54 45//45 14//14
f 54//54 48//48 4//4
f 37//37 32//32 54//54
f 54//54 24//24 37//37
f 19//19 48//48 54//54
f 54//54 32//32 6//6
f 54//54 35//35 11//11
f 11//11 21//21 54//54
f 6//6 25//25 54//54
f 54//54 31//31 12//12
f 25//25 45//45 54//54
f 54//54 51//51 19//19
f 58//58 18//18 63//63
f 15//15 39//39 63//63
f 63//63 39//39 58//58
f 8//8 42//42 61//61
f 8//8 61//61 22//22
f 8//8 55//55 9//9
f 9//9 52//52 8//8
f 52//52 16//16 8//8
f 8//8 10//10 43//43
f 8//8 44//44 10//10
f 8//8 16//16 44//44


