# https://github.com/mikedh/trimesh
v -0.02123800 -0.05430700 0.01741600
v 0.01154800 -0.03244900 0.02561400
v 0.01154800 -0.03244900 0.00922600
v 0.01360100 -0.05635700 0.00990700
v -0.01645300 -0.03244900 0.00717600
v 0.01018100 -0.05635500 0.02903300
v -0.01440400 -0.03244900 0.02629700
v -0.01987100 -0.05635500 0.00512800
v -0.01987100 -0.05635500 0.02766400
v 0.00949900 -0.05567400 0.00512800
v -0.01782100 -0.03244900 0.02424700
v 0.01291600 -0.05635500 0.02766400
v 0.00471800 -0.03244900 0.00717600
v 0.00949900 -0.03244900 0.02698100
v -0.01782100 -0.03244900 0.00854200
v -0.00279900 -0.05567400 0.02903300
v -0.01577100 -0.05020900 0.00512800
v -0.02123800 -0.05567400 0.00649200
v 0.01223000 -0.05635500 0.00580900
v 0.01291600 -0.04406300 0.01878300
v -0.02123800 -0.05635500 0.02424700
v -0.01782100 -0.05567400 0.02834700
v 0.01018100 -0.03244900 0.00785900
v -0.00006700 -0.03244900 0.02698100
v -0.01987100 -0.04406600 0.02288300
v 0.01291600 -0.04474400 0.00922600
v 0.01291600 -0.05157600 0.00649200
v -0.00757300 -0.05020900 0.00512800
v 0.01291600 -0.04884200 0.02561400
v 0.00813100 -0.05430700 0.02903300
v 0.01223000 -0.05430700 0.02834700
v -0.01987100 -0.05157300 0.02698100
v -0.01235400 -0.04338200 0.00580900
v -0.01987100 -0.04474200 0.01332300
vn -0.99738392 0.07223752 0.00265825
vn 0.66265480 0.66084061 0.35238941
vn 0.67865395 0.68225464 -0.27195114
vn 0.74013117 -0.66735407 -0.08273087
vn -0.26875082 0.68622960 -0.67591563
vn 0.14698769 -0.65359891 0.74243053
vn -0.18748837 0.70501670 0.68395874
vn -0.37404564 -0.60789958 -0.70039129
vn -0.53235698 -0.59196897 0.60511882
vn 0.10014034 -0.28112157 -0.95443312
vn -0.63559461 0.68328811 0.35935615
vn 0.67993100 -0.61804621 0.39460450
vn 0.04328668 0.73175111 -0.68019598
vn 0.20423876 0.68790594 0.69647106
vn -0.66364425 0.69508479 -0.27646599
vn -0.03415547 -0.30129293 0.95291971
vn -0.06663059 0.06961768 -0.99534604
vn -0.87341490 -0.34943535 -0.33917746
vn 0.49759919 -0.61119451 -0.61549681
vn 0.99668765 0.07882241 0.02001884
vn -0.76096409 -0.63267334 0.14372926
vn -0.15413658 -0.24959716 0.95600375
vn 0.30926135 0.69121589 -0.65312940
vn -0.01591278 0.73426396 0.67867755
vn -0.98223047 0.14535948 0.11871787
vn 0.98726051 0.09228048 -0.12961870
vn 0.75344376 0.07207357 -0.65355022
vn 0.00826489 0.05498756 -0.99845283
vn 0.98601574 0.05810300 0.15619542
vn 0.02961411 0.05734587 0.99791505
vn 0.56839053 0.04869642 0.82131654
vn -0.73904623 0.14066591 0.65880481
vn -0.00789102 0.11174120 -0.99370601
vn -0.98876500 0.14781941 -0.02220822
f 12//12 6//6 4//4
f 4//4 21//21 8//8
f 4//4 6//6 9//9
f 9//9 21//21 4//4
f 31//31 12//12 2//2
f 6//6 12//12 31//31
f 18//18 21//21 1//1
f 18//18 8//8 21//21
f 1//1 34//34 18//18
f 5//5 8//8 18//18
f 14//14 31//31 2//2
f 6//6 31//31 14//14
f 2//2 12//12 29//29
f 29//29 20//20 2//2
f 29//29 12//12 4//4
f 4//4 20//20 29//29
f 27//27 10//10 23//23
f 2//2 20//20 3//3
f 3//3 27//27 23//23
f 17//17 8//8 5//5
f 23//23 10//10 13//13
f 16//16 9//9 6//6
f 21//21 9//9 32//32
f 5//5 18//18 15//15
f 15//15 18//18 34//34
f 1//1 21//21 25//25
f 25//25 34//34 1//1
f 21//21 32//32 25//25
f 25//25 32//32 11//11
f 11//11 15//15 25//25
f 25//25 15//15 34//34
f 19//19 27//27 4//4
f 10//10 27//27 19//19
f 4//4 8//8 19//19
f 8//8 10//10 19//19
f 26//26 20//20 4//4
f 26//26 3//3 20//20
f 4//4 27//27 26//26
f 27//27 3//3 26//26
f 5//5 13//13 33//33
f 33//33 17//17 5//5
f 6//6 14//14 30//30
f 30//30 16//16 6//6
f 9//9 16//16 22//22
f 22//22 32//32 9//9
f 28//28 13//13 10//10
f 28//28 33//33 13//13
f 17//17 33//33 28//28
f 11//11 32//32 7//7
f 32//32 22//22 7//7
f 24//24 30//30 14//14
f 16//16 30//30 24//24
f 24//24 22//22 16//16
f 24//24 7//7 22//22
f 8//8 17//17 28//28
f 28//28 10//10 8//8
f 2//2 3//3 24//24
f 24//24 13//13 5//5
f 24//24 14//14 2//2
f 5//5 15//15 24//24
f 24//24 3//3 23//23
f 23//23 13//13 24//24
f 24//24 15//15 11//11
f 11//11 7//7 24//24


