# https://github.com/mikedh/trimesh
v 0.04024400 -0.05499200 0.02971500
v 0.06598300 -0.03313200 0.02561900
v 0.06598300 -0.03313200 0.02288600
v 0.05322300 -0.05499200 0.01947000
v 0.05254200 -0.05499200 0.03176500
v 0.04161100 -0.05430700 0.02151900
v 0.06073700 -0.03449900 0.03176500
v 0.06551600 -0.03654900 0.03244800
v 0.06414900 -0.03381600 0.02015200
v 0.06483500 -0.03859700 0.02083600
v 0.04229400 -0.05430700 0.03176500
v 0.04707600 -0.05499200 0.01878600
v 0.04161100 -0.05294200 0.02357000
v 0.06210100 -0.03381600 0.02220300
v 0.05937000 -0.04679400 0.02766600
v 0.05800300 -0.04064700 0.03249400
v 0.05595500 -0.04952700 0.01878600
v 0.04024400 -0.05430700 0.02971500
v 0.06483500 -0.03313200 0.03108200
v 0.06598300 -0.03518200 0.02015200
v 0.06142000 -0.03381600 0.02698300
v 0.05458700 -0.05362500 0.02220300
v 0.06346800 -0.03654900 0.03249400
v 0.05322300 -0.05499200 0.02971500
v 0.05254200 -0.05089200 0.03244800
v 0.05595500 -0.03996400 0.03244800
vn -0.73126318 -0.63030227 0.26071674
vn 0.73418937 0.67786006 0.03836293
vn 0.63310003 0.76294030 -0.13079161
vn 0.37517279 -0.75013634 -0.54455564
vn 0.29002325 -0.73566995 0.61210803
vn -0.75487910 -0.29954175 -0.58346576
vn -0.39274925 0.70199075 0.59410186
vn 0.71327176 -0.04839955 0.69921447
vn -0.03302809 0.68357229 -0.72913515
vn 0.82896072 -0.43516292 -0.35136501
vn -0.43450200 -0.28572000 0.85414992
vn -0.24796403 -0.55657651 -0.79292902
vn -0.81414702 0.54314756 -0.20531769
vn -0.46158942 0.84443965 -0.27176623
vn 0.82221412 -0.56416273 0.07539470
vn -0.00751141 0.00537868 0.99995732
vn 0.31588759 -0.16921503 -0.93358519
vn -0.90314510 0.31856935 0.28782371
vn 0.37627460 0.79417166 0.47718843
vn 0.75334979 0.09257495 -0.65107141
vn -0.46079921 0.88727949 -0.01998006
vn 0.77915733 -0.62581211 -0.03567984
vn -0.00166225 0.17384546 0.98477154
vn 0.48011314 -0.87198195 0.09559730
vn 0.04035969 -0.08745333 0.99535070
vn -0.38216624 0.36902757 0.84721167
f 1//1 5//5 11//11
f 6//6 12//12 1//1
f 1//1 11//11 18//18
f 18//18 6//6 1//1
f 25//25 11//11 5//5
f 5//5 8//8 25//25
f 2//2 8//8 20//20
f 20//20 3//3 2//2
f 14//14 6//6 13//13
f 6//6 18//18 13//13
f 18//18 7//7 13//13
f 2//2 3//3 19//19
f 19//19 8//8 2//2
f 19//19 7//7 8//8
f 8//8 7//7 23//23
f 16//16 25//25 23//23
f 23//23 25//25 8//8
f 26//26 18//18 11//11
f 26//26 7//7 18//18
f 26//26 25//25 16//16
f 11//11 25//25 26//26
f 16//16 23//23 26//26
f 26//26 23//23 7//7
f 17//17 4//4 12//12
f 12//12 6//6 9//9
f 9//9 6//6 14//14
f 9//9 17//17 12//12
f 20//20 17//17 9//9
f 14//14 3//3 9//9
f 3//3 20//20 9//9
f 24//24 8//8 5//5
f 24//24 15//15 8//8
f 4//4 17//17 10//10
f 10//10 17//17 20//20
f 10//10 20//20 8//8
f 8//8 15//15 10//10
f 7//7 19//19 21//21
f 14//14 13//13 21//21
f 21//21 13//13 7//7
f 21//21 3//3 14//14
f 21//21 19//19 3//3
f 22//22 24//24 4//4
f 15//15 24//24 22//22
f 4//4 10//10 22//22
f 22//22 10//10 15//15
f 24//24 5//5 1//1
f 1//1 12//12 24//24
f 12//12 4//4 24//24


