# https://github.com/mikedh/trimesh
v -0.02123400 -0.09017300 0.01537300
v 0.01359800 -0.05635800 0.00990900
v 0.01359800 -0.05635800 0.00922600
v -0.03285000 -0.06250700 0.02015200
v 0.01906700 -0.07821400 0.03108200
v 0.01769700 -0.08368100 0.00512800
v -0.02943100 -0.07207200 0.00375900
v 0.01154900 -0.05635800 0.02902900
v -0.03285000 -0.07890000 0.02766400
v -0.02054900 -0.05635800 0.00512800
v 0.01154900 -0.08846500 0.02902900
v -0.01850500 -0.05635800 0.02834600
v 0.01906700 -0.06660900 0.00444500
v -0.00825900 -0.09017300 0.00649300
v -0.03353400 -0.08368100 0.00990600
v -0.02054900 -0.08914700 0.02903200
v 0.01906700 -0.08641600 0.00786100
v -0.02601700 -0.06934400 0.02971400
v 0.01906700 -0.06592400 0.02971400
v -0.02123400 -0.08368100 0.00375900
v -0.03353400 -0.06729100 0.00649300
v -0.00416000 -0.07480000 0.00307700
v 0.01086400 -0.05635800 0.00512800
v -0.03353400 -0.08436600 0.02151400
v -0.03353400 -0.06797300 0.02629800
v 0.01838200 -0.08641600 0.02971400
v -0.02191900 -0.08914700 0.00581000
v 0.00403700 -0.08982900 0.02766600
v -0.01440600 -0.08436600 0.03039700
v 0.00881500 -0.08914700 0.00717800
v -0.03353400 -0.07890000 0.00512800
v 0.01701200 -0.07139400 0.03108200
v -0.02259800 -0.06934400 0.00307400
v 0.01906700 -0.07685000 0.00376200
v -0.03353400 -0.06319200 0.01127400
v -0.00757400 -0.08709800 0.00444200
v -0.02191900 -0.08982900 0.02766400
v 0.01906700 -0.06934400 0.00376200
v 0.00335200 -0.05977500 0.02971400
v -0.02191900 -0.05635800 0.02083400
v -0.02738100 -0.08026400 0.02971400
v -0.01030800 -0.05704400 0.00444200
v -0.01577100 -0.07139400 0.03039700
v -0.02328300 -0.08982900 0.00922400
v 0.01632700 -0.08777600 0.02629800
v -0.02533200 -0.07752900 0.00307400
v 0.01291400 -0.05635800 0.02766600
v -0.01645600 -0.09017300 0.02220000
v 0.00472200 -0.08846500 0.02971400
v -0.00825900 -0.07821400 0.00307400
v 0.01906700 -0.06524200 0.00649300
v -0.00416000 -0.09017300 0.00990900
v -0.02191900 -0.05635800 0.00854400
v 0.01906700 -0.06524200 0.02766600
v -0.03353400 -0.08163100 0.02561600
v 0.01906700 -0.08641600 0.02834600
v -0.02054900 -0.05635800 0.02698100
v -0.02328300 -0.08982900 0.02288200
v -0.03285000 -0.08504500 0.01332500
v 0.01632700 -0.08777600 0.00990900
v -0.01782000 -0.09017300 0.00649300
v -0.01098700 -0.05772900 0.02903200
v 0.00198800 -0.08777600 0.00512800
v -0.01850500 -0.08982900 0.02903200
vn -0.08259444 -0.99658321 0.00025184
vn 0.48813789 0.87276070 0.00318755
vn 0.51064578 0.84833048 -0.13991528
vn -0.78094620 0.60041373 0.17212315
vn 0.68862076 -0.04821609 0.72351687
vn 0.38224338 -0.37458286 -0.84473527
vn -0.28809858 0.09921452 -0.95244721
vn 0.17397897 0.73993679 0.64978832
vn -0.67719102 -0.12709911 0.72474695
vn -0.21042346 0.75521524 -0.62078330
vn 0.14771855 -0.85947459 0.48936965
vn -0.14180856 0.74396776 0.65299488
vn 0.77677410 0.25008462 -0.57799626
vn 0.01459394 -0.88120620 -0.47250677
vn -0.83781789 -0.47428206 -0.27040286
vn -0.24664451 -0.46645791 0.84946071
vn 0.74204263 -0.57384519 -0.34651757
vn -0.23321692 0.13647796 0.96279989
vn 0.76156101 0.25244218 0.59690684
vn -0.09430709 -0.24402440 -0.96517266
vn -0.79824798 0.24781885 -0.54898632
vn 0.01847064 0.01140276 -0.99976438
vn 0.21681680 0.73524940 -0.64218284
vn -0.83754258 -0.52718021 0.14353902
vn -0.80449652 0.24194678 0.54244548
vn 0.47949731 -0.55030566 0.68355395
vn -0.25070834 -0.69648597 -0.67234859
vn 0.07225010 -0.96128478 0.26591634
vn -0.03776529 -0.11639049 0.99248528
vn 0.15652620 -0.87424411 -0.45956151
vn -0.75394393 -0.19137638 -0.62844540
vn 0.14845275 0.08411250 0.98533592
vn -0.07527399 0.09662997 -0.99246989
vn 0.69907011 -0.07740085 -0.71085166
vn -0.84343916 0.50891230 -0.17210074
vn 0.01583677 -0.36187934 -0.93209041
vn -0.33166409 -0.85498977 0.39873729
vn 0.70218140 0.05945643 -0.70951125
vn -0.01137469 0.15981656 0.98708119
vn -0.27108857 0.96198895 0.03298867
vn -0.27083559 -0.15366173 0.95028214
vn -0.00053476 0.42361916 -0.90584023
vn -0.03959661 0.05093853 0.99791652
vn -0.32773037 -0.93022572 -0.16514515
vn 0.30150393 -0.95074029 0.07202975
vn -0.12252431 -0.09614541 -0.98779748
vn 0.49032775 0.84041363 0.23083246
vn -0.00870133 -0.99962435 0.02598925
vn 0.03009685 -0.53997552 0.84114245
vn 0.01278184 -0.07797238 -0.99687358
vn 0.92647158 0.34489350 -0.15066146
vn 0.04118033 -0.99876911 -0.02764857
vn -0.30167678 0.95026122 -0.07742571
vn 0.94542593 0.31966291 0.06313037
vn -0.84259095 -0.33835625 0.41899349
vn 0.82110324 -0.54346034 0.17447158
vn -0.34379597 0.86262368 0.37105891
vn -0.30263331 -0.95143091 0.05650042
vn -0.66747352 -0.74161941 -0.06693091
vn 0.30528412 -0.94776190 -0.09246070
vn -0.03314315 -0.88424936 -0.46583752
vn -0.03196050 0.23129053 0.97235961
vn 0.06911311 -0.47712232 -0.87611510
vn -0.05658481 -0.75819997 0.64956214
f 21//21 35//35 10//10
f 47//47 54//54 2//2
f 19//19 47//47 8//8
f 54//54 47//47 19//19
f 62//62 8//8 12//12
f 62//62 39//39 8//8
f 11//11 49//49 28//28
f 10//10 23//23 42//42
f 7//7 21//21 10//10
f 31//31 27//27 15//15
f 31//31 7//7 46//46
f 31//31 20//20 27//27
f 46//46 20//20 31//31
f 21//21 7//7 31//31
f 10//10 35//35 53//53
f 35//35 25//25 4//4
f 40//40 53//53 4//4
f 4//4 53//53 35//35
f 3//3 13//13 23//23
f 5//5 19//19 32//32
f 32//32 19//19 8//8
f 8//8 39//39 32//32
f 18//18 62//62 12//12
f 12//12 25//25 18//18
f 25//25 9//9 18//18
f 26//26 56//56 5//5
f 5//5 49//49 26//26
f 26//26 49//49 11//11
f 28//28 52//52 30//30
f 45//45 26//26 11//11
f 56//56 26//26 45//45
f 11//11 28//28 45//45
f 45//45 30//30 60//60
f 28//28 30//30 45//45
f 37//37 58//58 1//1
f 64//64 28//28 49//49
f 16//16 37//37 64//64
f 46//46 7//7 33//33
f 10//10 42//42 33//33
f 33//33 7//7 10//10
f 55//55 9//9 25//25
f 16//16 9//9 55//55
f 55//55 37//37 16//16
f 40//40 4//4 57//57
f 57//57 25//25 12//12
f 57//57 4//4 25//25
f 13//13 3//3 51//51
f 5//5 32//32 29//29
f 16//16 64//64 29//29
f 29//29 49//49 5//5
f 29//29 64//64 49//49
f 39//39 62//62 43//43
f 62//62 18//18 43//43
f 43//43 32//32 39//39
f 43//43 29//29 32//32
f 50//50 20//20 46//46
f 46//46 33//33 50//50
f 1//1 58//58 44//44
f 44//44 58//58 59//59
f 44//44 59//59 15//15
f 15//15 27//27 44//44
f 6//6 30//30 63//63
f 17//17 30//30 6//6
f 60//60 30//30 17//17
f 6//6 34//34 17//17
f 61//61 44//44 27//27
f 1//1 44//44 61//61
f 48//48 37//37 1//1
f 48//48 64//64 37//37
f 28//28 64//64 48//48
f 48//48 52//52 28//28
f 38//38 33//33 42//42
f 23//23 13//13 38//38
f 38//38 42//42 23//23
f 15//15 59//59 24//24
f 37//37 55//55 24//24
f 59//59 58//58 24//24
f 58//58 37//37 24//24
f 16//16 29//29 41//41
f 41//41 9//9 16//16
f 41//41 18//18 9//9
f 41//41 43//43 18//18
f 29//29 43//43 41//41
f 27//27 20//20 36//36
f 36//36 61//61 27//27
f 20//20 50//50 36//36
f 36//36 50//50 34//34
f 36//36 34//34 6//6
f 6//6 63//63 36//36
f 14//14 63//63 30//30
f 14//14 30//30 52//52
f 14//14 36//36 63//63
f 61//61 36//36 14//14
f 22//22 38//38 34//34
f 34//34 50//50 22//22
f 22//22 50//50 33//33
f 33//33 38//38 22//22
f 10//10 53//53 57//57
f 2//2 3//3 57//57
f 12//12 8//8 57//57
f 57//57 23//23 10//10
f 57//57 47//47 2//2
f 8//8 47//47 57//57
f 57//57 53//53 40//40
f 57//57 3//3 23//23
f 51//51 3//3 2//2
f 2//2 54//54 51//51
f 17//17 45//45 60//60
f 56//56 45//45 17//17
f 56//56 17//17 38//38
f 38//38 19//19 5//5
f 54//54 19//19 38//38
f 5//5 56//56 38//38
f 38//38 51//51 54//54
f 13//13 51//51 38//38
f 38//38 17//17 34//34
f 35//35 21//21 24//24
f 24//24 31//31 15//15
f 24//24 25//25 35//35
f 21//21 31//31 24//24
f 24//24 55//55 25//25
f 14//14 48//48 1//1
f 1//1 61//61 14//14
f 52//52 48//48 14//14


