# https://github.com/mikedh/trimesh
v 0.06149300 0.03143900 0.02919100
v 0.00492000 0.02964300 0.00494100
v 0.00492000 0.03233600 0.00494100
v -0.01214800 0.03323600 0.03008700
v 0.01929600 0.01886400 0.03368400
v 0.03544300 0.01886400 0.00853500
v -0.00675400 0.01886400 0.01842000
v 0.05880800 0.03413400 0.00853500
v -0.02203200 0.03413400 0.01662300
v 0.01390200 0.03413400 0.03548200
v 0.05969500 0.02515400 0.01931500
v 0.03544300 0.01886400 0.03278600
v -0.01394600 0.02605100 0.02919100
v 0.05700200 0.03413400 0.03098800
v 0.00492000 0.02964300 0.03638000
v -0.00406100 0.01886400 0.01482500
v 0.05791400 0.02874400 0.00853500
v -0.00316600 0.01886400 0.02829600
v -0.01484000 0.02515400 0.01482500
v 0.02197100 0.01886400 0.00763600
v 0.04353000 0.01886400 0.01662300
v 0.06420200 0.03413400 0.01751800
v 0.01570000 0.03054000 0.03638000
v 0.01480500 0.03323600 0.00494100
v -0.01663800 0.02515400 0.02469800
v -0.01933100 0.03413400 0.02649500
v 0.06060600 0.02694800 0.02649500
v 0.05969500 0.02694800 0.01123100
v 0.04173200 0.01886400 0.02829600
v 0.01570000 0.02964300 0.00494100
v 0.05880800 0.03143900 0.03098800
v 0.03186400 0.01886400 0.03368400
v 0.03186400 0.01886400 0.00763600
v 0.00492000 0.03323600 0.03638000
v 0.05431800 0.03143900 0.00763600
v -0.01035000 0.03413400 0.01213000
v 0.06329100 0.02874400 0.01662300
v -0.01304200 0.02605100 0.01302500
v 0.00581500 0.01886400 0.01123100
v 0.06149300 0.03054000 0.01033200
v -0.01663800 0.02515400 0.01751800
v 0.01570000 0.03323600 0.03638000
v 0.05880800 0.02874400 0.03008700
v 0.06329100 0.03413400 0.02560000
v 0.06329100 0.02874400 0.02290100
v 0.00581500 0.01886400 0.03098800
v 0.00581500 0.02874400 0.00494100
v -0.00585900 0.01886400 0.02649500
v -0.02112900 0.03323600 0.01572100
v -0.01214800 0.02605100 0.03008700
v 0.01839200 0.03413400 0.00853500
v 0.04173200 0.01886400 0.01302500
v 0.06060600 0.02605100 0.01482500
v -0.02203200 0.03323600 0.01842000
v 0.04353000 0.01886400 0.02469800
v -0.01304200 0.02245900 0.02469800
v -0.01214800 0.02515400 0.01302500
vn 0.74977549 -0.00479386 0.66167495
vn -0.22705573 -0.11999581 -0.96646091
vn -0.17132246 0.49199924 -0.85357212
vn -0.35218144 0.36353778 0.86244334
vn -0.02581123 -0.78600092 0.61768627
vn 0.14897872 -0.86106460 -0.48618216
vn -0.30951791 -0.94339640 -0.11917169
vn 0.35737785 0.65160220 -0.66910063
vn -0.79656808 0.49067518 -0.35315317
vn 0.00334829 0.92345197 0.38369943
vn 0.52553396 -0.85040127 0.02513445
vn 0.17275921 -0.80540903 0.56698373
vn -0.55771029 -0.39563547 0.72967925
vn 0.20006572 0.72422220 0.65990598
vn -0.17574952 -0.19142300 0.96564452
vn -0.22054901 -0.88476484 -0.41054757
vn 0.35017895 -0.36420797 -0.86297581
vn -0.17830764 -0.86660611 0.46604746
vn -0.56249158 -0.61055338 -0.55751931
vn -0.02424032 -0.79311030 -0.60859548
vn 0.21288378 -0.97516515 -0.06110184
vn 0.77718391 0.61956634 -0.11010324
vn 0.05031476 -0.08456211 0.99514706
vn 0.00248959 0.62104839 -0.78376827
vn -0.74497662 -0.60553537 0.27988705
vn -0.67374033 0.53765392 0.50695387
vn 0.61062708 -0.69672902 0.37643492
vn 0.54830569 -0.67475553 -0.49403021
vn 0.23252168 -0.93713744 0.26020585
vn 0.03486243 -0.09330323 -0.99502719
vn 0.40007856 0.00608494 0.91646065
vn 0.08166532 -0.72456384 0.68435226
vn 0.05562670 -0.75185047 -0.65698291
vn -0.15577387 0.56222397 0.81218145
vn 0.11269486 0.00605349 -0.99361120
vn -0.16416028 0.88437418 -0.43695962
vn 0.89479256 -0.42060981 -0.14977872
vn -0.44952462 -0.30192366 -0.84069598
vn -0.13536138 -0.86637111 -0.48070615
vn 0.78672828 -0.10756879 -0.60785489
vn -0.69553955 -0.68292475 -0.22324541
vn 0.06365375 0.40844806 0.91055938
vn 0.44421429 -0.49470732 0.74695269
vn 0.72430437 0.63273820 0.27390792
vn 0.88745557 -0.43313886 0.15752250
vn -0.12147742 -0.84764195 0.51647493
vn -0.14137346 -0.27879946 -0.94988652
vn -0.29423153 -0.91463657 0.27725034
vn -0.66833517 -0.05498843 -0.74182503
vn -0.37363105 -0.31519407 0.87238325
vn -0.00401181 0.99239228 -0.12305065
vn 0.20284282 -0.95418616 -0.21996265
vn 0.59995751 -0.77185515 -0.21045334
vn -0.99214403 -0.09464665 0.08180605
vn 0.22737716 -0.97100431 0.07382589
vn -0.53625007 -0.81422319 0.22243307
vn -0.37715579 -0.52399512 -0.76366395
f 36//36 51//51 24//24
f 36//36 3//3 9//9
f 24//24 3//3 36//36
f 8//8 35//35 24//24
f 24//24 51//51 8//8
f 24//24 35//35 30//30
f 2//2 38//38 49//49
f 49//49 3//3 2//2
f 9//9 3//3 49//49
f 34//34 26//26 4//4
f 9//9 49//49 41//41
f 10//10 26//26 34//34
f 31//31 14//14 42//42
f 42//42 23//23 31//31
f 14//14 10//10 42//42
f 42//42 10//10 34//34
f 47//47 38//38 2//2
f 47//47 57//57 38//38
f 33//33 30//30 35//35
f 33//33 47//47 30//30
f 46//46 15//15 50//50
f 5//5 15//15 46//46
f 54//54 26//26 9//9
f 9//9 41//41 54//54
f 25//25 54//54 41//41
f 26//26 54//54 25//25
f 19//19 49//49 38//38
f 19//19 41//41 49//49
f 38//38 57//57 19//19
f 19//19 57//57 16//16
f 7//7 19//19 16//16
f 41//41 19//19 7//7
f 1//1 44//44 14//14
f 1//1 14//14 31//31
f 47//47 33//33 20//20
f 23//23 15//15 32//32
f 32//32 15//15 5//5
f 31//31 23//23 32//32
f 32//32 12//12 31//31
f 18//18 46//46 50//50
f 26//26 25//25 13//13
f 50//50 4//4 13//13
f 13//13 4//4 26//26
f 48//48 18//18 13//13
f 13//13 18//18 50//50
f 56//56 7//7 48//48
f 48//48 13//13 56//56
f 56//56 13//13 25//25
f 56//56 25//25 41//41
f 41//41 7//7 56//56
f 55//55 11//11 27//27
f 47//47 20//20 39//39
f 16//16 57//57 39//39
f 57//57 47//47 39//39
f 40//40 8//8 22//22
f 22//22 37//37 40//40
f 22//22 44//44 45//45
f 45//45 37//37 22//22
f 44//44 1//1 45//45
f 1//1 27//27 45//45
f 45//45 27//27 11//11
f 21//21 11//11 55//55
f 55//55 27//27 29//29
f 29//29 27//27 12//12
f 31//31 12//12 43//43
f 12//12 27//27 43//43
f 43//43 1//1 31//31
f 43//43 27//27 1//1
f 28//28 40//40 37//37
f 52//52 6//6 28//28
f 52//52 28//28 53//53
f 53//53 21//21 52//52
f 11//11 21//21 53//53
f 53//53 28//28 37//37
f 53//53 45//45 11//11
f 37//37 45//45 53//53
f 40//40 28//28 17//17
f 35//35 8//8 17//17
f 8//8 40//40 17//17
f 17//17 28//28 6//6
f 17//17 6//6 33//33
f 17//17 33//33 35//35
f 50//50 15//15 4//4
f 4//4 15//15 34//34
f 22//22 8//8 10//10
f 9//9 26//26 10//10
f 10//10 36//36 9//9
f 10//10 44//44 22//22
f 51//51 36//36 10//10
f 10//10 8//8 51//51
f 14//14 44//44 10//10
f 34//34 15//15 42//42
f 42//42 15//15 23//23
f 47//47 3//3 24//24
f 2//2 3//3 47//47
f 24//24 30//30 47//47
f 6//6 18//18 48//48
f 6//6 7//7 16//16
f 5//5 46//46 6//6
f 6//6 32//32 5//5
f 6//6 21//21 55//55
f 16//16 39//39 6//6
f 48//48 7//7 6//6
f 6//6 20//20 33//33
f 12//12 32//32 6//6
f 55//55 29//29 6//6
f 46//46 18//18 6//6
f 6//6 39//39 20//20
f 52//52 21//21 6//6
f 6//6 29//29 12//12


