# https://github.com/mikedh/trimesh
v -0.00946300 0.05479500 0.04266400
v -0.01395000 0.05210500 0.00000000
v -0.01395000 0.05479500 0.00000000
v -0.07368300 0.05389700 0.02739300
v -0.00317400 0.07500600 0.01931600
v -0.00137200 0.03413400 0.03008900
v -0.06154700 0.03953000 0.01392700
v -0.06244500 0.06916600 0.01662000
v -0.00137200 0.03593800 0.00674100
v -0.06154700 0.06557000 0.03457900
v -0.06065700 0.04222400 0.03457900
v -0.00137200 0.06736600 0.03817000
v -0.00137200 0.06646800 0.00225100
v -0.06334900 0.05658700 0.00674100
v -0.00137200 0.04132600 0.03906900
v -0.06244500 0.05030900 0.03817400
v -0.02922000 0.03413400 0.02739300
v -0.02922000 0.07365100 0.02739300
v -0.06244500 0.04491800 0.00853900
v -0.02563000 0.07095700 0.00943800
v -0.06244500 0.03773000 0.02021500
v -0.07322800 0.05568900 0.01482600
v -0.00137200 0.04042400 0.00225100
v -0.02473300 0.03413400 0.01392700
v -0.06244500 0.06287600 0.00853900
v -0.02832200 0.06107600 0.04086600
v -0.07322800 0.04581600 0.02649400
v -0.07322800 0.06197800 0.02739300
v -0.02473300 0.04581600 0.04086600
v -0.06244500 0.07006000 0.02469600
v -0.00946300 0.07185500 0.03368000
v -0.01484700 0.03683200 0.03457900
v -0.02832200 0.07365100 0.01572500
v -0.02742500 0.06377400 0.00315000
v -0.06154700 0.05928000 0.03817400
v -0.07053500 0.04491800 0.01572500
v -0.06154700 0.03953000 0.03098800
v -0.02922000 0.04671300 0.00225100
v -0.00407100 0.07275700 0.01033600
v -0.00407100 0.05120700 0.04266400
v -0.00496900 0.05838200 0.00000000
v -0.07053500 0.06377400 0.01752300
v -0.02742500 0.04941100 0.04176500
v -0.07053500 0.04941100 0.03278500
v -0.00137200 0.03413400 0.01213000
v -0.02203300 0.04132600 0.00404900
v -0.06244500 0.06826800 0.03098800
v -0.00317400 0.07454900 0.02739300
v -0.02113600 0.06557400 0.03906900
v -0.06334900 0.05120700 0.00674100
v -0.00407100 0.06107600 0.04176500
v -0.02563000 0.03593800 0.01033600
v -0.06874100 0.05748900 0.03457900
v -0.02742500 0.05838200 0.00135300
v -0.00137200 0.07275700 0.02380200
v -0.02832200 0.07185500 0.03188700
v -0.06154700 0.06826800 0.01392700
v -0.01484700 0.04042400 0.03817000
v -0.06154700 0.04222400 0.01033600
v -0.00766100 0.04851300 0.00000000
v -0.02922000 0.03593800 0.03188700
v -0.07053500 0.04941100 0.01213000
v -0.00137200 0.07006000 0.00584200
v -0.06154700 0.03773000 0.02469600
vn -0.01685799 0.06296591 0.99787329
vn -0.06633686 -0.06412614 -0.99573453
vn -0.05295611 0.05940770 -0.99682816
vn -0.96808708 0.00001535 0.25061405
vn 0.43416354 0.89644546 -0.08881188
vn 0.64498642 -0.72487678 0.24196316
vn -0.32638600 -0.83807915 -0.43714473
vn -0.36695756 0.89494171 -0.25381390
vn 0.63421886 -0.64885073 -0.42042738
vn -0.30328716 0.61420083 0.72854255
vn -0.28770112 -0.60594202 0.74166187
vn 0.67592956 0.46031149 0.57552807
vn 0.63142338 0.37817531 -0.67696968
vn -0.40359920 0.15702905 -0.90135984
vn 0.66111096 -0.40998296 0.62836794
vn -0.31980321 -0.20983427 0.92395643
vn -0.06882658 -0.98205520 0.17558613
vn -0.07899592 0.97765906 0.19478810
vn -0.35923084 -0.46432450 -0.80954059
vn -0.09634657 0.80449116 -0.58609838
vn -0.37620148 -0.92004352 -0.10950967
vn -0.89225217 0.11356521 -0.43702289
vn 0.62826360 -0.37683829 -0.68064510
vn -0.06635268 -0.97297278 -0.22118157
vn -0.37683983 0.50096484 -0.77911872
vn -0.08106912 0.29066014 0.95338580
vn -0.85449092 -0.48055044 0.19727275
vn -0.85248700 0.45143344 0.26357875
vn -0.05914116 -0.41485813 0.90796203
vn -0.35120330 0.93316765 0.07651389
vn 0.01276586 0.82733999 0.56155638
vn -0.02867292 -0.80220527 0.59635942
vn -0.08843185 0.97075781 -0.22317946
vn -0.11339534 0.49606570 -0.86084860
vn -0.28336644 0.26428079 0.92187804
vn -0.75188996 -0.55887760 -0.34973892
vn -0.34718198 -0.82038798 0.45434375
vn -0.13113006 -0.27142253 -0.95348556
vn 0.15772796 0.91826207 -0.36320334
vn 0.41559012 -0.08659541 0.90542039
vn 0.21724088 0.10142065 -0.97083482
vn -0.72629136 0.60942015 -0.31797474
vn -0.07801725 -0.12656952 0.98888496
vn -0.70139041 -0.26397588 0.66209382
vn 0.66786062 -0.73365058 -0.12537555
vn -0.10902499 -0.58794215 -0.80152204
vn -0.34962134 0.82076984 0.45177625
vn 0.43433217 0.86775247 0.24158065
vn -0.05280162 0.57714165 0.81493528
vn -0.37545979 -0.13763749 -0.91656198
vn 0.35136573 0.23769222 0.90556311
vn -0.11025710 -0.82363037 -0.55630602
vn -0.63810482 0.19959761 0.74362829
vn -0.11804889 0.14303990 -0.98265154
vn 0.93164403 0.36198757 0.03169224
vn -0.07199789 0.83739028 0.54184299
vn -0.31126643 0.79431270 -0.52170925
vn -0.03874057 -0.61100293 0.79067983
vn -0.31946751 -0.67849763 -0.66149942
vn 0.05817245 -0.15068078 -0.98686943
vn -0.07954959 -0.84387334 0.53061252
vn -0.73789782 -0.24136370 -0.63027801
vn 0.66013792 0.60328964 -0.44750367
vn -0.32250106 -0.93385729 0.15460796
f 25//25 22//22 42//42
f 16//16 29//29 43//43
f 4//4 22//22 27//27
f 6//6 15//15 32//32
f 16//16 43//43 35//35
f 51//51 12//12 49//49
f 45//45 24//24 9//9
f 41//41 54//54 13//13
f 34//34 54//54 25//25
f 13//13 54//54 34//34
f 25//25 20//20 34//34
f 34//34 20//20 13//13
f 25//25 54//54 14//14
f 14//14 54//54 50//50
f 14//14 22//22 25//25
f 33//33 18//18 5//5
f 39//39 33//33 5//5
f 20//20 33//33 39//39
f 57//57 20//20 25//25
f 25//25 42//42 57//57
f 57//57 42//42 8//8
f 8//8 33//33 57//57
f 57//57 33//33 20//20
f 23//23 41//41 13//13
f 41//41 23//23 60//60
f 46//46 23//23 9//9
f 50//50 19//19 62//62
f 22//22 14//14 62//62
f 62//62 14//14 50//50
f 40//40 15//15 12//12
f 40//40 12//12 51//51
f 29//29 15//15 40//40
f 40//40 43//43 29//29
f 44//44 27//27 37//37
f 4//4 27//27 44//44
f 11//11 29//29 16//16
f 16//16 44//44 11//11
f 11//11 44//44 37//37
f 58//58 15//15 29//29
f 58//58 32//32 15//15
f 29//29 11//11 58//58
f 58//58 11//11 32//32
f 1//1 40//40 51//51
f 43//43 40//40 1//1
f 4//4 44//44 28//28
f 28//28 22//22 4//4
f 28//28 42//42 22//22
f 51//51 49//49 26//26
f 26//26 1//1 51//51
f 10//10 35//35 26//26
f 26//26 49//49 10//10
f 26//26 35//35 43//43
f 43//43 1//1 26//26
f 5//5 18//18 48//48
f 12//12 55//55 48//48
f 48//48 55//55 5//5
f 30//30 33//33 8//8
f 18//18 33//33 30//30
f 8//8 42//42 30//30
f 42//42 28//28 30//30
f 37//37 17//17 61//61
f 61//61 11//11 37//37
f 32//32 11//11 61//61
f 61//61 17//17 6//6
f 6//6 32//32 61//61
f 24//24 17//17 21//21
f 7//7 24//24 21//21
f 2//2 54//54 3//3
f 54//54 41//41 3//3
f 13//13 20//20 63//63
f 20//20 39//39 63//63
f 63//63 39//39 5//5
f 5//5 55//55 63//63
f 19//19 46//46 59//59
f 38//38 60//60 23//23
f 23//23 46//46 38//38
f 2//2 60//60 38//38
f 38//38 19//19 50//50
f 38//38 46//46 19//19
f 38//38 54//54 2//2
f 50//50 54//54 38//38
f 53//53 35//35 10//10
f 10//10 28//28 53//53
f 53//53 28//28 44//44
f 16//16 35//35 53//53
f 53//53 44//44 16//16
f 12//12 48//48 31//31
f 31//31 48//48 18//18
f 31//31 49//49 12//12
f 18//18 30//30 47//47
f 47//47 28//28 10//10
f 47//47 30//30 28//28
f 64//64 17//17 37//37
f 64//64 21//21 17//17
f 37//37 27//27 64//64
f 27//27 21//21 64//64
f 36//36 62//62 19//19
f 19//19 59//59 36//36
f 36//36 59//59 7//7
f 7//7 21//21 36//36
f 36//36 21//21 27//27
f 36//36 27//27 22//22
f 22//22 62//62 36//36
f 52//52 46//46 9//9
f 52//52 59//59 46//46
f 7//7 59//59 52//52
f 52//52 24//24 7//7
f 9//9 24//24 52//52
f 56//56 31//31 18//18
f 18//18 47//47 56//56
f 56//56 47//47 10//10
f 10//10 49//49 56//56
f 49//49 31//31 56//56
f 17//17 45//45 6//6
f 24//24 45//45 17//17
f 41//41 60//60 3//3
f 3//3 60//60 2//2
f 63//63 55//55 12//12
f 63//63 15//15 6//6
f 6//6 45//45 63//63
f 12//12 15//15 63//63
f 9//9 23//23 63//63
f 63//63 45//45 9//9
f 63//63 23//23 13//13


