# https://github.com/mikedh/trimesh
v 0.04802800 -0.00179800 0.02290200
v 0.01120400 -0.00629000 0.02021500
v 0.01120400 -0.00629000 0.02110900
v 0.04982700 -0.04221500 0.02560000
v 0.03635200 -0.02604400 0.00763700
v 0.02558100 -0.04221900 0.03368400
v 0.03275700 0.00000000 0.03548200
v 0.02288800 -0.04221900 0.01213100
v 0.02468300 0.00000000 0.00674000
v 0.04443400 0.00000000 0.01123100
v 0.04802800 -0.04221900 0.01392600
v 0.01570000 0.00000000 0.03188600
v 0.04533500 -0.02874200 0.03278400
v 0.01839200 -0.04221900 0.02649500
v 0.01210500 0.00000000 0.01392600
v 0.05072800 -0.01886500 0.01751900
v 0.04713000 -0.01167900 0.03098800
v 0.04174500 -0.04221900 0.03368400
v 0.01390100 -0.02604400 0.01842000
v 0.01479800 -0.02245300 0.02919300
v 0.02468300 -0.01617500 0.03548200
v 0.03365500 -0.04221900 0.00943500
v 0.03994600 -0.00539300 0.00763700
v 0.02108900 -0.01707200 0.00853500
v 0.04623300 -0.02335300 0.01033300
v 0.04623300 0.00000000 0.02829300
v 0.05072800 -0.01796900 0.02470000
v 0.01570000 -0.02245300 0.01302900
v 0.04264200 -0.04221900 0.01033300
v 0.03635200 -0.02245300 0.03548200
v 0.01120400 0.00000000 0.02560000
v 0.04174500 -0.00449200 0.03368400
v 0.01839200 -0.04221900 0.01842000
v 0.01929400 -0.01796900 0.03368400
v 0.05072800 -0.04131800 0.02021200
v 0.01300300 -0.02245300 0.02470300
v 0.02827300 -0.02514700 0.00763700
v 0.02019100 -0.00179800 0.03457900
v 0.01570000 -0.00359500 0.01033300
v 0.04802800 -0.03772300 0.03008800
v 0.04892900 -0.01258000 0.01392300
v 0.03006900 -0.03952000 0.03457900
v 0.03275700 0.00000000 0.00674000
v 0.02108900 -0.04131800 0.03098800
v 0.04713000 0.00000000 0.01661900
v 0.02647800 -0.04221900 0.01033300
v 0.04892900 -0.02604400 0.01302900
v 0.03994600 -0.01796900 0.00763700
v 0.04982700 -0.02604400 0.02829300
v 0.03455600 -0.01167900 0.00674000
v 0.04084300 -0.01258000 0.03457900
v 0.01929400 -0.02425000 0.01033300
v 0.04982700 -0.00988500 0.01841700
v 0.04982700 -0.01258000 0.02649800
v 0.01390100 -0.00808800 0.03008800
v 0.01749500 -0.02425000 0.03188600
v 0.04533500 -0.00808800 0.01033300
v 0.01210500 -0.01527400 0.01842000
v 0.02468300 -0.00090100 0.03548200
v 0.02108900 0.00000000 0.00763700
v 0.04264200 0.00000000 0.03188600
v 0.02917100 -0.02784600 0.03548200
v 0.01570000 -0.02784600 0.01482600
v 0.01210500 -0.01437300 0.02560000
vn 0.91874343 0.38658983 0.08036669
vn -0.99570165 -0.03263065 -0.08668022
vn -0.99812494 -0.05353740 0.02967081
vn 0.67504242 -0.69385903 0.25075361
vn 0.08669716 -0.08745935 -0.99238826
vn -0.22405140 -0.70556974 0.67228887
vn 0.07465596 0.69219309 0.71784066
vn -0.41926946 -0.73797385 -0.52877946
vn -0.10117638 0.66691821 -0.73822994
vn 0.48008803 0.71534385 -0.50773877
vn 0.57371524 -0.68207735 -0.45345486
vn -0.47930742 0.66816451 0.56905236
vn 0.52340460 -0.01473126 0.85195693
vn -0.63917529 -0.73989159 0.20979844
vn -0.69168785 0.62245306 -0.36622411
vn 0.97922500 0.03919726 -0.19895221
vn 0.71092181 0.10014870 0.69610374
vn 0.24753471 -0.68202123 0.68816685
vn -0.95889945 -0.21213860 -0.18843850
vn -0.83843808 -0.14973572 0.52402366
vn -0.15803263 -0.02873294 0.98701576
vn -0.00511034 -0.72915975 -0.68432445
vn 0.32731212 0.12199424 -0.93700810
vn -0.35341506 -0.08339434 -0.93174201
vn 0.55422345 -0.02080208 -0.83210795
vn 0.59379740 0.73404658 0.32951519
vn 0.98687095 0.05475790 0.15194505
vn -0.77845182 -0.14631149 -0.61041438
vn 0.24623846 -0.69653685 -0.67394587
vn 0.11961647 -0.02041733 0.99261021
vn -0.73952077 0.64020600 0.20795506
vn 0.42905680 0.16018059 0.88896144
vn -0.63302959 -0.74826012 -0.19844477
vn -0.45867762 -0.05918459 0.88662958
vn 0.87873067 -0.46619644 -0.10243671
vn -0.96854756 -0.18471185 0.16672481
vn -0.12981255 -0.09757834 -0.98672548
vn -0.34439224 0.22036189 0.91259773
vn -0.59939382 0.02339864 -0.80011221
vn 0.73669366 -0.16260949 0.65638450
vn 0.86907244 0.10738319 -0.48288916
vn -0.02984835 -0.17002593 0.98498744
vn 0.07873274 0.69351467 -0.71612748
vn -0.60606719 -0.48752431 0.62849234
vn 0.63896719 0.74947356 -0.17323486
vn -0.19221603 -0.72657278 -0.65965520
vn 0.83200036 -0.03683523 -0.55355086
vn 0.25548462 -0.03129132 -0.96630661
vn 0.88570323 -0.01058320 0.46413121
vn 0.05766759 -0.02094331 -0.99811614
vn 0.32370928 0.03271382 0.94559088
vn -0.51987194 -0.15587897 -0.83990173
vn 0.97668235 0.17515952 -0.12413995
vn 0.94600402 0.13982113 0.29244904
vn -0.77399409 -0.04041879 0.63190147
vn -0.62790542 -0.13617768 0.76628351
vn 0.63608901 0.09982772 -0.76513083
vn -0.96971771 -0.12304799 -0.21096623
vn -0.11910783 0.48619587 0.86569446
vn -0.26854272 0.66751343 -0.69448587
vn 0.37218968 0.74795729 0.54957688
vn -0.06674948 -0.05950912 0.99599356
vn -0.83161986 -0.22360944 -0.50833771
vn -0.96394549 -0.09652913 0.24797424
f 10//10 45//45 41//41
f 47//47 41//41 16//16
f 20//20 36//36 14//14
f 7//7 12//12 59//59
f 6//6 18//18 42//42
f 25//25 47//47 11//11
f 1//1 45//45 26//26
f 2//2 31//31 15//15
f 10//10 41//41 57//57
f 57//57 47//47 25//25
f 41//41 47//47 57//57
f 16//16 41//41 53//53
f 53//53 41//41 45//45
f 45//45 1//1 53//53
f 53//53 27//27 16//16
f 20//20 56//56 55//55
f 12//12 31//31 55//55
f 12//12 55//55 34//34
f 34//34 55//55 56//56
f 6//6 21//21 34//34
f 34//34 56//56 6//6
f 33//33 14//14 19//19
f 19//19 14//14 36//36
f 64//64 36//36 20//20
f 20//20 55//55 64//64
f 64//64 55//55 31//31
f 44//44 14//14 6//6
f 6//6 56//56 44//44
f 44//44 56//56 20//20
f 20//20 14//14 44//44
f 62//62 21//21 6//6
f 6//6 42//42 62//62
f 18//18 11//11 4//4
f 40//40 18//18 4//4
f 4//4 49//49 40//40
f 27//27 49//49 4//4
f 25//25 11//11 29//29
f 54//54 1//1 26//26
f 26//26 17//17 54//54
f 27//27 53//53 54//54
f 54//54 53//53 1//1
f 54//54 49//49 27//27
f 17//17 49//49 54//54
f 7//7 32//32 61//61
f 61//61 17//17 26//26
f 61//61 32//32 17//17
f 30//30 42//42 18//18
f 30//30 62//62 42//42
f 13//13 18//18 40//40
f 40//40 49//49 13//13
f 13//13 49//49 17//17
f 63//63 8//8 33//33
f 28//28 8//8 63//63
f 33//33 19//19 63//63
f 46//46 24//24 37//37
f 39//39 15//15 60//60
f 60//60 24//24 39//39
f 28//28 15//15 39//39
f 23//23 43//43 10//10
f 10//10 57//57 23//23
f 23//23 57//57 25//25
f 21//21 59//59 38//38
f 38//38 34//34 21//21
f 38//38 59//59 12//12
f 12//12 34//34 38//38
f 3//3 31//31 2//2
f 3//3 64//64 31//31
f 35//35 4//4 11//11
f 35//35 47//47 16//16
f 35//35 11//11 47//47
f 16//16 27//27 35//35
f 27//27 4//4 35//35
f 7//7 30//30 51//51
f 51//51 32//32 7//7
f 17//17 32//32 51//51
f 51//51 13//13 17//17
f 51//51 30//30 18//18
f 18//18 13//13 51//51
f 58//58 63//63 19//19
f 2//2 15//15 58//58
f 58//58 15//15 28//28
f 28//28 63//63 58//58
f 58//58 19//19 36//36
f 58//58 3//3 2//2
f 36//36 64//64 58//58
f 64//64 3//3 58//58
f 9//9 24//24 60//60
f 9//9 37//37 24//24
f 46//46 37//37 22//22
f 28//28 39//39 52//52
f 52//52 39//39 24//24
f 52//52 8//8 28//28
f 46//46 8//8 52//52
f 52//52 24//24 46//46
f 25//25 29//29 48//48
f 48//48 23//23 25//25
f 50//50 9//9 43//43
f 37//37 9//9 50//50
f 43//43 23//23 50//50
f 23//23 48//48 50//50
f 29//29 22//22 5//5
f 5//5 48//48 29//29
f 5//5 50//50 48//48
f 5//5 22//22 37//37
f 37//37 50//50 5//5
f 30//30 59//59 21//21
f 7//7 59//59 30//30
f 21//21 62//62 30//30
f 60//60 15//15 9//9
f 9//9 12//12 7//7
f 9//9 31//31 12//12
f 9//9 45//45 10//10
f 26//26 45//45 9//9
f 10//10 43//43 9//9
f 7//7 61//61 9//9
f 9//9 15//15 31//31
f 9//9 61//61 26//26
f 22//22 8//8 46//46
f 22//22 18//18 6//6
f 6//6 14//14 22//22
f 22//22 14//14 33//33
f 22//22 11//11 18//18
f 33//33 8//8 22//22
f 22//22 29//29 11//11


