# https://github.com/mikedh/trimesh
v 0.04083700 0.00449300 0.03278400
v 0.02467700 0.00000000 0.00674000
v 0.02107700 0.00000000 0.00763700
v 0.01659500 0.01886400 0.00853500
v -0.00496100 0.00628900 0.02739200
v 0.04174000 0.01886400 0.02739200
v -0.00316600 0.01886400 0.02829300
v 0.04353500 0.00359300 0.01123100
v 0.02557500 0.00000000 0.03548200
v -0.00496100 0.00449300 0.01661900
v 0.03545700 0.01886400 0.00853500
v 0.03276000 0.01886400 0.03368400
v 0.04713500 0.00000000 0.02379900
v -0.00406300 0.01886400 0.01482600
v 0.01030700 0.00000000 0.02560000
v 0.04264200 0.01886400 0.01482600
v 0.03815000 0.00000000 0.00763700
v 0.01929200 0.01886400 0.03368400
v 0.03725200 0.00000000 0.03457900
v 0.00401900 0.00628900 0.03098800
v -0.00586300 0.01886400 0.02560000
v 0.00401900 0.00628900 0.01213100
v 0.04713500 0.00000000 0.01751600
v 0.03006700 0.00898500 0.00674000
v 0.04353500 0.01886400 0.02379900
v 0.04533500 0.00089900 0.02919300
v 0.01210700 0.00000000 0.01302900
v 0.01480500 0.00000000 0.03188600
v -0.00586300 0.00539000 0.02560000
v -0.00586300 0.01886400 0.01661900
v 0.03904200 0.01886400 0.03098800
v 0.02107700 0.01886400 0.00763700
v 0.03006700 0.01437100 0.03457900
v 0.00761500 0.00898500 0.03188600
v 0.03276000 0.01886400 0.00763700
v 0.00941000 0.01796500 0.01033300
v 0.03994500 0.01886400 0.01123100
v 0.00581400 0.01886400 0.03098800
v 0.04174000 0.00269600 0.00943500
v 0.00043000 0.00269600 0.02470300
v 0.04533500 0.00000000 0.01302900
v 0.03455500 0.00179700 0.00674000
v -0.00586300 0.00539000 0.01751600
v 0.01030700 0.00000000 0.01661900
v 0.04353500 0.01886400 0.01842000
v 0.02019500 0.00089900 0.03457900
v 0.03186200 0.00089900 0.03548200
v 0.02019500 0.00179700 0.00763700
v 0.04713500 0.00179700 0.01931700
vn 0.53399545 0.07712962 0.84196192
vn -0.07393411 -0.68124528 -0.72831216
vn -0.18774762 -0.74448254 -0.64070007
vn -0.15973022 0.70333023 -0.69268524
vn -0.61746041 -0.31852949 0.71922291
vn 0.54948573 0.76301420 0.34040383
vn -0.37842621 0.66810063 0.64065213
vn 0.75825626 0.11736437 -0.64130573
vn -0.06048685 -0.66943660 0.74040258
vn -0.59980763 -0.61558691 -0.51115904
vn 0.27622806 0.72408566 -0.63197944
vn 0.14593790 0.71930636 0.67919105
vn 0.77318272 -0.61539852 0.15320946
vn -0.40861399 0.64336892 -0.64738785
vn -0.16359672 -0.98391327 0.07176901
vn 0.61363259 0.73296526 -0.29362728
vn 0.26597940 -0.65962314 -0.70295965
vn -0.08850792 0.71152242 0.69706685
vn 0.25307006 -0.64715274 0.71913063
vn -0.31887872 -0.20124055 0.92618497
vn -0.71503273 0.63916118 0.28319813
vn -0.35106641 -0.17319497 -0.92019339
vn 0.76761995 -0.61508326 -0.18008940
vn 0.01930782 0.04837127 -0.99864279
vn 0.66031200 0.73525765 0.15291910
vn 0.74356886 -0.42395189 0.51707848
vn -0.19013651 -0.94513590 -0.26564306
vn -0.21663801 -0.85554774 0.47021914
vn -0.80014478 -0.52987128 0.28107785
vn -0.71979515 0.62071495 -0.31081808
vn 0.41760571 0.72239916 0.55113059
vn -0.08650806 0.69843132 -0.71042948
vn 0.05595947 0.11417903 0.99188290
vn -0.22615856 0.02152701 0.97385260
vn 0.11362481 0.70430247 -0.70074777
vn -0.27976335 0.17989447 -0.94306439
vn 0.45398984 0.72717430 -0.51488908
vn -0.17235271 0.71303821 0.67961095
vn 0.56701668 -0.01710437 -0.82352870
vn -0.32188024 -0.93476151 0.15037965
vn 0.66463424 -0.62021644 -0.41664480
vn 0.12988761 -0.10712810 -0.98572449
vn -0.90648546 -0.31550196 -0.28061117
vn -0.15988124 -0.98595254 -0.04832775
vn 0.65455384 0.75143443 -0.08309978
vn -0.22814099 -0.34602804 0.91006389
vn 0.08489274 -0.17740386 0.98046983
vn -0.25139975 -0.06715237 -0.96555100
vn 0.98991546 0.13235798 -0.05048510
f 36//36 14//14 4//4
f 26//26 19//19 13//13
f 2//2 24//24 42//42
f 10//10 30//30 14//14
f 1//1 26//26 31//31
f 19//19 26//26 1//1
f 31//31 12//12 1//1
f 1//1 12//12 19//19
f 28//28 9//9 46//46
f 46//46 9//9 18//18
f 33//33 12//12 18//18
f 18//18 9//9 33//33
f 23//23 49//49 13//13
f 39//39 41//41 17//17
f 2//2 42//42 17//17
f 35//35 42//42 24//24
f 35//35 17//17 42//42
f 13//13 49//49 25//25
f 25//25 26//26 13//13
f 8//8 41//41 39//39
f 39//39 37//37 8//8
f 38//38 7//7 20//20
f 22//22 10//10 14//14
f 14//14 36//36 22//22
f 47//47 9//9 19//19
f 47//47 33//33 9//9
f 19//19 12//12 47//47
f 12//12 33//33 47//47
f 32//32 35//35 24//24
f 32//32 24//24 2//2
f 11//11 37//37 39//39
f 39//39 17//17 11//11
f 17//17 35//35 11//11
f 16//16 23//23 41//41
f 41//41 8//8 16//16
f 16//16 8//8 37//37
f 31//31 26//26 6//6
f 26//26 25//25 6//6
f 18//18 38//38 34//34
f 34//34 46//46 18//18
f 20//20 46//46 34//34
f 34//34 38//38 20//20
f 27//27 44//44 10//10
f 5//5 29//29 28//28
f 28//28 46//46 5//5
f 5//5 46//46 20//20
f 20//20 7//7 5//5
f 5//5 7//7 21//21
f 21//21 29//29 5//5
f 28//28 29//29 40//40
f 10//10 44//44 40//40
f 40//40 29//29 10//10
f 30//30 10//10 43//43
f 10//10 29//29 43//43
f 48//48 22//22 36//36
f 48//48 36//36 4//4
f 4//4 32//32 48//48
f 48//48 32//32 2//2
f 45//45 25//25 49//49
f 49//49 23//23 45//45
f 23//23 16//16 45//45
f 3//3 27//27 10//10
f 3//3 48//48 2//2
f 10//10 22//22 3//3
f 22//22 48//48 3//3
f 28//28 40//40 15//15
f 15//15 40//40 44//44
f 21//21 30//30 43//43
f 43//43 29//29 21//21
f 45//45 12//12 31//31
f 21//21 7//7 45//45
f 4//4 14//14 45//45
f 45//45 30//30 21//21
f 14//14 30//30 45//45
f 18//18 12//12 45//45
f 45//45 38//38 18//18
f 45//45 16//16 37//37
f 45//45 32//32 4//4
f 37//37 11//11 45//45
f 7//7 38//38 45//45
f 35//35 32//32 45//45
f 45//45 11//11 35//35
f 31//31 6//6 45//45
f 45//45 6//6 25//25
f 2//2 17//17 15//15
f 13//13 19//19 15//15
f 15//15 9//9 28//28
f 15//15 23//23 13//13
f 19//19 9//9 15//15
f 41//41 23//23 15//15
f 15//15 17//17 41//41
f 15//15 3//3 2//2
f 44//44 27//27 15//15
f 27//27 3//3 15//15


