# https://github.com/mikedh/trimesh
v 0.07138800 0.04761000 0.03278600
v 0.02019000 0.06646600 0.00000000
v 0.02019000 0.06736400 0.00000000
v -0.00136100 0.04132700 0.03997000
v 0.00132700 0.07096200 0.03906800
v -0.00046800 0.03683100 0.00224900
v 0.05970300 0.03413400 0.00853800
v 0.06869200 0.07006400 0.01572600
v 0.06779100 0.04940900 0.00135100
v -0.00136100 0.07006400 0.00494200
v 0.05790900 0.03413400 0.03098600
v 0.06419400 0.05838400 0.03727200
v -0.00136100 0.03413400 0.03008400
v 0.01749400 0.03953200 0.04087200
v 0.05881000 0.07186000 0.02290100
v 0.07318200 0.04132700 0.01752100
v 0.01479800 0.07365900 0.01572200
v 0.06779100 0.06018000 0.00224900
v 0.02108400 0.03772900 0.00045300
v 0.06779100 0.06647000 0.03098600
v 0.07368300 0.06107700 0.01572600
v 0.01839500 0.06916300 0.03997000
v 0.06509500 0.04851100 0.03727200
v -0.00136100 0.03413400 0.01213400
v 0.06330000 0.07006100 0.01033400
v -0.00046800 0.06646600 0.00045300
v -0.00136100 0.07096200 0.03548000
v 0.06419400 0.04761400 0.00045700
v 0.02198500 0.06916300 0.00045300
v 0.00132700 0.03863000 0.04087200
v 0.06958500 0.03683100 0.02290100
v 0.02198500 0.07096200 0.03817400
v 0.01300400 0.07365900 0.02559900
v 0.03725100 0.05658500 0.03997000
v 0.07138800 0.04581500 0.00584000
v 0.07318200 0.06018000 0.02829300
v 0.00312200 0.05838400 0.04087200
v -0.00136100 0.03953200 0.00135100
v 0.06149800 0.06197900 0.00135500
v 0.02737600 0.05120400 0.00000000
v -0.00136100 0.07185600 0.01662000
v 0.01659300 0.03683100 0.03906800
v 0.06599600 0.07006100 0.02649300
v 0.06509500 0.04222400 0.00315100
v 0.06958500 0.03772900 0.01213000
v 0.06239900 0.07186000 0.01752100
v 0.06599600 0.06646600 0.00584400
v 0.07138800 0.06018000 0.00584000
v 0.06330000 0.06197900 0.03637400
v 0.06419400 0.05838400 0.00045700
v 0.01211000 0.03593700 0.00224900
v 0.07048600 0.04132700 0.03008800
v 0.07368300 0.04581500 0.02200300
v 0.06958500 0.05928200 0.03458200
v 0.07138800 0.06736800 0.02290100
v 0.06509500 0.03413400 0.01572600
v 0.06330000 0.04491700 0.03637400
v 0.00042600 0.07006400 0.00224900
v 0.00222800 0.04940900 0.00045300
v 0.02198500 0.07006400 0.00224900
v 0.02019000 0.03772900 0.03997000
v 0.07318200 0.04940900 0.00943600
v 0.03725100 0.04940900 0.00000000
v 0.00042600 0.06826500 0.03997000
vn 0.79155271 -0.19179090 0.58022458
vn -0.01160158 -0.00205288 -0.99993059
vn -0.00869573 0.13779070 -0.99042320
vn -0.80012348 -0.14868429 0.58111565
vn -0.28569877 0.73305524 0.61725702
vn -0.47267311 -0.66435847 -0.57897146
vn 0.17577968 -0.88238948 -0.43645195
vn 0.57955314 0.79790235 -0.16574077
vn 0.53281479 -0.11816600 -0.83794105
vn -0.78624735 0.58684753 -0.19345562
vn 0.19231885 -0.85856805 0.47526242
vn 0.26875062 0.14901064 0.95161386
vn -0.67327453 -0.72437040 0.14828667
vn 0.03959461 -0.20352583 0.97826862
vn 0.09464494 0.98386224 0.15184673
vn 0.92307528 -0.38192109 -0.04547873
vn -0.02074896 0.99304056 -0.11593066
vn 0.51048414 0.31759398 -0.79908698
vn 0.01830867 -0.46744331 -0.88383344
vn 0.49316609 0.65114397 0.57688711
vn 0.96405592 0.24100517 -0.11186013
vn 0.04643172 0.38125312 0.92330393
vn 0.34908168 -0.17663525 0.92029450
vn -0.68618598 -0.72200808 -0.08861794
vn 0.20134674 0.89759969 -0.39214064
vn -0.59165097 0.19296573 -0.78276009
vn -0.75735052 0.62330855 0.19469629
vn 0.18862558 -0.21678259 -0.95782342
vn 0.04175670 0.61468115 -0.78766964
vn -0.30086383 -0.52354493 0.79710831
vn 0.63075485 -0.75520489 0.17836449
vn 0.09429390 0.82790678 0.55288247
vn -0.03693412 0.99594418 0.08204299
vn 0.07565475 0.04495147 0.99612034
vn 0.78989012 -0.30028513 -0.53469846
vn 0.92771751 0.21773235 0.30320429
vn -0.10258094 0.03500691 0.99410848
vn -0.70540151 -0.18786456 -0.68345857
vn 0.14903874 0.46821661 -0.87095388
vn -0.00770239 -0.01498870 -0.99985800
vn -0.73209661 0.68011549 -0.03843789
vn -0.00302229 -0.85694782 0.51539431
vn 0.33841044 0.88117188 0.33017343
vn 0.35371025 -0.53697207 -0.76586556
vn 0.65980772 -0.67655406 -0.32699904
vn 0.15603023 0.98574812 -0.06289039
vn 0.40773628 0.68626864 -0.60231760
vn 0.82622476 0.28838296 -0.48392966
vn 0.24567952 0.46557637 0.85022363
vn 0.20658929 0.16764988 -0.96395767
vn -0.02941731 -0.84477010 -0.53432022
vn 0.70386020 -0.50941536 0.49505234
vn 0.98480209 -0.13511094 0.10913236
vn 0.64934754 0.23712660 0.72257785
vn 0.78798114 0.60040411 0.13638411
vn 0.31932626 -0.94471404 -0.07447232
vn 0.28232752 -0.43155799 0.85676652
vn -0.33272775 0.75123965 -0.57002740
vn -0.08904710 -0.03157401 -0.99552684
vn 0.03812345 0.93458993 -0.35367820
vn 0.08614028 -0.58207516 0.80855943
vn 0.96660517 -0.05794860 -0.24963253
vn 0.00957130 -0.02224721 -0.99970668
vn -0.52874304 0.20634813 0.82331722
f 7//7 24//24 51//51
f 14//14 37//37 30//30
f 4//4 13//13 30//30
f 33//33 27//27 5//5
f 41//41 27//27 33//33
f 17//17 41//41 33//33
f 32//32 5//5 22//22
f 32//32 33//33 5//5
f 43//43 55//55 8//8
f 8//8 55//55 21//21
f 10//10 26//26 38//38
f 7//7 51//51 19//19
f 34//34 12//12 22//22
f 22//22 37//37 34//34
f 34//34 37//37 14//14
f 23//23 34//34 14//14
f 12//12 34//34 23//23
f 11//11 56//56 31//31
f 6//6 24//24 38//38
f 6//6 51//51 24//24
f 38//38 19//19 6//6
f 6//6 19//19 51//51
f 14//14 30//30 61//61
f 61//61 23//23 14//14
f 64//64 27//27 4//4
f 5//5 27//27 64//64
f 4//4 30//30 64//64
f 64//64 30//30 37//37
f 64//64 37//37 22//22
f 22//22 5//5 64//64
f 22//22 12//12 49//49
f 49//49 32//32 22//22
f 15//15 32//32 43//43
f 33//33 32//32 15//15
f 25//25 8//8 47//47
f 25//25 47//47 29//29
f 29//29 60//60 25//25
f 29//29 47//47 39//39
f 39//39 50//50 29//29
f 45//45 56//56 7//7
f 45//45 35//35 16//16
f 16//16 31//31 45//45
f 45//45 31//31 56//56
f 16//16 35//35 62//62
f 28//28 50//50 9//9
f 58//58 10//10 41//41
f 58//58 41//41 17//17
f 17//17 60//60 58//58
f 58//58 60//60 29//29
f 29//29 26//26 58//58
f 26//26 10//10 58//58
f 38//38 26//26 59//59
f 59//59 19//19 38//38
f 7//7 19//19 44//44
f 44//44 19//19 28//28
f 44//44 45//45 7//7
f 35//35 45//45 44//44
f 28//28 9//9 44//44
f 44//44 9//9 35//35
f 21//21 55//55 36//36
f 11//11 31//31 52//52
f 52//52 31//31 16//16
f 57//57 61//61 11//11
f 23//23 61//61 57//57
f 11//11 52//52 57//57
f 57//57 52//52 23//23
f 42//42 30//30 13//13
f 42//42 61//61 30//30
f 42//42 13//13 11//11
f 11//11 61//61 42//42
f 43//43 32//32 20//20
f 32//32 49//49 20//20
f 20//20 55//55 43//43
f 20//20 36//36 55//55
f 43//43 8//8 46//46
f 46//46 15//15 43//43
f 8//8 25//25 46//46
f 17//17 33//33 46//46
f 33//33 15//15 46//46
f 46//46 60//60 17//17
f 46//46 25//25 60//60
f 48//48 62//62 35//35
f 35//35 9//9 48//48
f 21//21 62//62 48//48
f 48//48 8//8 21//21
f 47//47 8//8 48//48
f 3//3 26//26 29//29
f 29//29 50//50 3//3
f 21//21 36//36 53//53
f 53//53 62//62 21//21
f 16//16 62//62 53//53
f 53//53 52//52 16//16
f 23//23 52//52 1//1
f 1//1 53//53 36//36
f 52//52 53//53 1//1
f 36//36 20//20 54//54
f 54//54 1//1 36//36
f 54//54 49//49 12//12
f 54//54 20//20 49//49
f 12//12 23//23 54//54
f 23//23 1//1 54//54
f 18//18 9//9 50//50
f 18//18 48//48 9//9
f 47//47 48//48 18//18
f 18//18 39//39 47//47
f 50//50 39//39 18//18
f 19//19 59//59 40//40
f 2//2 59//59 26//26
f 26//26 3//3 2//2
f 2//2 40//40 59//59
f 28//28 19//19 63//63
f 19//19 40//40 63//63
f 63//63 50//50 28//28
f 63//63 3//3 50//50
f 7//7 56//56 13//13
f 13//13 24//24 7//7
f 13//13 56//56 11//11
f 4//4 27//27 10//10
f 10//10 13//13 4//4
f 38//38 24//24 10//10
f 24//24 13//13 10//10
f 10//10 27//27 41//41
f 40//40 2//2 63//63
f 63//63 2//2 3//3


