# https://github.com/mikedh/trimesh
v -0.02292500 -0.06467100 0.04446000
v 0.01928100 -0.06916400 0.00000000
v 0.01928100 -0.06826600 0.00000000
v 0.05432000 -0.06107700 0.04355900
v 0.02647300 -0.04221900 0.01033200
v -0.02472300 -0.07500600 0.00763900
v -0.02023200 -0.04851000 0.03098500
v 0.04533000 -0.07275900 0.04266700
v 0.04712800 -0.07275900 0.00314500
v 0.04443500 -0.04221900 0.03278700
v -0.02202200 -0.05389700 0.00853500
v 0.05341700 -0.06018200 0.00314900
v -0.02292500 -0.07455400 0.04266300
v 0.00042300 -0.05030600 0.04087000
v 0.04982900 -0.04221900 0.01752000
v -0.03011700 -0.06647000 0.02649500
v 0.03545400 -0.07455100 0.00404500
v 0.03096300 -0.06557300 0.04583400
v 0.03994500 -0.05300300 0.00314500
v -0.02472300 -0.07275900 0.00405000
v 0.05521500 -0.06736800 0.02201000
v 0.02467500 -0.04221900 0.03368300
v -0.00226900 -0.05120700 0.00584200
v -0.02202200 -0.04851000 0.02201000
v 0.03724300 -0.04940800 0.03997000
v 0.05521500 -0.05569600 0.01842100
v -0.02112700 -0.05120700 0.03727200
v -0.00496200 -0.07096000 0.04583400
v 0.04263700 -0.04221900 0.01033200
v 0.04623300 -0.07365600 0.03099000
v -0.02651200 -0.07500600 0.02380200
v 0.00132700 -0.04402100 0.02201000
v 0.04083900 -0.07096000 0.00000000
v -0.02023200 -0.06736800 0.00314500
v -0.02921300 -0.06916400 0.01213400
v -0.02023200 -0.05030600 0.01213400
v 0.04982900 -0.04221900 0.02649500
v -0.02921300 -0.07275900 0.03367800
v -0.02561800 -0.05300000 0.02201000
v 0.01210600 -0.07365600 0.00134800
v -0.02561800 -0.05928800 0.03817300
v 0.04083900 -0.07096000 0.04536000
v 0.05161900 -0.07185700 0.02739100
v -0.00586500 -0.06287600 0.04535600
v -0.00316400 -0.07455400 0.04176700
v 0.02916500 -0.06108000 0.00045200
v 0.05341700 -0.06107700 0.04446000
v 0.05521500 -0.06287600 0.04176700
v -0.01214600 -0.07500600 0.01931700
v 0.05521500 -0.06467100 0.01033200
v 0.02647300 -0.04761200 0.00584200
v -0.03011700 -0.07365600 0.02201000
v 0.05611800 -0.06107700 0.03457900
v -0.02472300 -0.07185700 0.04446000
v -0.00586500 -0.06736800 0.00135200
v 0.03096300 -0.05928100 0.04446000
v -0.02561800 -0.06108000 0.00763900
v 0.00491400 -0.07365600 0.04446000
v -0.02382000 -0.05120700 0.03278200
v 0.03814700 -0.07365600 0.04087000
v -0.02202200 -0.05749200 0.04176700
v -0.01932900 -0.07365600 0.00314500
v -0.00406700 -0.07500600 0.00584200
v -0.02651200 -0.06826600 0.04266300
vn -0.35933885 0.23763670 0.90244357
vn -0.02738645 -0.12120356 -0.99224981
vn -0.03214957 0.05741667 -0.99783252
vn 0.80551654 0.18264012 0.56372484
vn -0.05084219 0.90357430 -0.42540400
vn -0.45472012 -0.85234690 -0.25832996
vn -0.33289561 0.92174807 0.19889949
vn 0.36898352 -0.78665816 0.49499505
vn 0.46537885 -0.71829587 -0.51717847
vn 0.23654183 0.86495199 0.44261272
vn -0.52976044 0.55492352 -0.64141543
vn 0.69412710 0.12730366 -0.70850642
vn -0.25134633 -0.85963787 0.44480080
vn -0.07708016 0.62130519 0.77976824
vn 0.57412217 0.79897450 -0.17895107
vn -0.98469235 0.16442140 0.05784970
vn 0.06319618 -0.94718633 -0.31439512
vn 0.01472721 0.07465434 0.99710072
vn 0.11323304 0.39063620 -0.91355440
vn -0.57439652 -0.34154201 -0.74392049
vn 0.90279465 -0.42860323 -0.03551193
vn -0.03014754 0.91560296 0.40095181
vn -0.13407474 0.56834284 -0.81179454
vn -0.51710479 0.85060877 -0.09522270
vn 0.06954167 0.55432830 0.82938778
vn 0.96902564 0.23558966 -0.07407311
vn -0.42634436 0.71415975 0.55516335
vn -0.03238807 -0.25174342 0.96725191
vn 0.20951965 0.84119209 -0.49849512
vn 0.20958831 -0.97670496 0.04604526
vn -0.20491998 -0.97824794 0.03223001
vn -0.15341712 0.98714118 -0.04489415
vn 0.13653404 -0.36039299 -0.92275422
vn -0.25203387 0.17401611 -0.95194397
vn -0.95673321 -0.04763543 -0.28704082
vn -0.42828596 0.81516935 -0.38996161
vn 0.57560885 0.80460973 0.14586851
vn -0.85080358 -0.48388688 0.20490669
vn -0.87512948 0.47680824 -0.08247601
vn -0.02892058 -0.67252036 -0.73951333
vn -0.85972818 0.34787208 0.37396854
vn 0.11181202 -0.43245188 0.89469740
vn 0.61246581 -0.78835619 0.05813903
vn -0.04640108 0.21381740 0.97577101
vn 0.01312891 -0.98883813 0.14841424
vn -0.00006581 0.21215559 -0.97723590
vn 0.46946772 0.11978220 0.87478699
vn 0.88892986 -0.25247914 0.38217533
vn 0.00621265 -0.99994055 0.00896086
vn 0.93950610 -0.27055372 -0.21006897
vn -0.03313846 0.51807087 -0.85469551
vn -0.82832130 -0.55932934 -0.03216386
vn 0.99259282 0.07725626 0.09376014
vn -0.50403523 -0.34398156 0.79222798
vn -0.08661060 0.07871821 -0.99312741
vn 0.01332784 0.31110717 0.95028138
vn -0.74325382 0.32002878 -0.58749922
vn 0.01667815 -0.77206827 0.63532073
vn -0.75574721 0.61211951 0.23271412
vn 0.04381032 -0.98375464 0.17409040
vn -0.43898965 0.46105339 0.77117952
vn -0.11948133 -0.58793626 -0.80003448
vn -0.00592294 -0.98443130 -0.17566998
vn -0.83269746 0.08342032 0.54740844
f 53//53 50//50 26//26
f 26//26 50//50 12//12
f 15//15 26//26 12//12
f 11//11 23//23 34//34
f 53//53 26//26 37//37
f 26//26 15//15 37//37
f 25//25 47//47 10//10
f 10//10 22//22 25//25
f 25//25 22//22 14//14
f 12//12 50//50 9//9
f 55//55 34//34 23//23
f 11//11 34//34 57//57
f 16//16 35//35 52//52
f 51//51 23//23 5//5
f 29//29 15//15 12//12
f 12//12 19//19 29//29
f 29//29 51//51 5//5
f 19//19 51//51 29//29
f 11//11 24//24 36//36
f 5//5 23//23 36//36
f 36//36 23//23 11//11
f 7//7 24//24 59//59
f 32//32 24//24 7//7
f 7//7 22//22 32//32
f 32//32 22//22 5//5
f 5//5 36//36 32//32
f 32//32 36//36 24//24
f 27//27 61//61 14//14
f 14//14 22//22 27//27
f 27//27 22//22 7//7
f 7//7 59//59 27//27
f 14//14 61//61 44//44
f 4//4 37//37 10//10
f 10//10 47//47 4//4
f 47//47 48//48 4//4
f 4//4 48//48 53//53
f 53//53 37//37 4//4
f 54//54 13//13 58//58
f 31//31 52//52 6//6
f 13//13 52//52 31//31
f 48//48 43//43 21//21
f 21//21 50//50 53//53
f 53//53 48//48 21//21
f 21//21 9//9 50//50
f 43//43 9//9 21//21
f 8//8 43//43 48//48
f 8//8 48//48 47//47
f 47//47 42//42 8//8
f 8//8 58//58 60//60
f 42//42 58//58 8//8
f 12//12 9//9 33//33
f 33//33 40//40 2//2
f 17//17 63//63 40//40
f 40//40 33//33 17//17
f 17//17 33//33 9//9
f 2//2 55//55 3//3
f 3//3 33//33 2//2
f 46//46 55//55 23//23
f 23//23 51//51 46//46
f 46//46 51//51 19//19
f 46//46 3//3 55//55
f 33//33 3//3 46//46
f 46//46 19//19 12//12
f 12//12 33//33 46//46
f 34//34 55//55 62//62
f 2//2 40//40 62//62
f 62//62 55//55 2//2
f 62//62 63//63 6//6
f 40//40 63//63 62//62
f 38//38 13//13 54//54
f 38//38 52//52 13//13
f 16//16 52//52 38//38
f 16//16 59//59 39//39
f 39//39 59//59 24//24
f 39//39 35//35 16//16
f 39//39 57//57 35//35
f 39//39 24//24 11//11
f 11//11 57//57 39//39
f 1//1 44//44 61//61
f 54//54 58//58 28//28
f 28//28 58//58 42//42
f 28//28 1//1 54//54
f 44//44 1//1 28//28
f 14//14 44//44 56//56
f 56//56 25//25 14//14
f 47//47 25//25 56//56
f 30//30 9//9 43//43
f 43//43 8//8 30//30
f 30//30 17//17 9//9
f 30//30 8//8 60//60
f 60//60 17//17 30//30
f 13//13 31//31 45//45
f 45//45 17//17 60//60
f 60//60 58//58 45//45
f 45//45 58//58 13//13
f 20//20 62//62 6//6
f 34//34 62//62 20//20
f 20//20 57//57 34//34
f 35//35 57//57 20//20
f 6//6 52//52 20//20
f 20//20 52//52 35//35
f 16//16 38//38 64//64
f 64//64 1//1 61//61
f 64//64 38//38 54//54
f 54//54 1//1 64//64
f 18//18 28//28 42//42
f 44//44 28//28 18//18
f 18//18 42//42 47//47
f 47//47 56//56 18//18
f 18//18 56//56 44//44
f 63//63 17//17 49//49
f 17//17 45//45 49//49
f 49//49 45//45 31//31
f 41//41 59//59 16//16
f 16//16 64//64 41//41
f 41//41 64//64 61//61
f 61//61 27//27 41//41
f 41//41 27//27 59//59
f 5//5 22//22 29//29
f 10//10 37//37 29//29
f 29//29 22//22 10//10
f 29//29 37//37 15//15
f 49//49 31//31 6//6
f 6//6 63//63 49//49


