# https://github.com/mikedh/trimesh
v -0.07534700 -0.03222000 0.00165400
v 0.06874200 0.04708100 0.04235200
v 0.06874200 0.04708100 0.04125200
v 0.08635600 -0.04542900 0.02475200
v -0.08744800 -0.04542000 0.04344700
v -0.08635600 0.04256900 0.00000000
v 0.08635600 0.04476100 0.00715300
v -0.08635600 0.04587600 0.03794800
v 0.08635600 -0.04321800 0.04949600
v 0.07975100 -0.04432400 0.01045700
v 0.08524700 0.04367400 0.04785000
v -0.08635600 -0.04708100 0.00605800
v -0.07094400 0.00736200 0.04565100
v -0.02144600 0.00076700 0.00055500
v 0.08800800 -0.02232700 0.00935200
v 0.08415400 0.04697200 0.01155600
v -0.08195300 0.02826300 0.04344700
v -0.05664000 -0.00581900 0.04675100
v -0.07425500 -0.04708100 0.03024600
v -0.08415400 0.04587600 0.01815900
v -0.08800800 0.02716700 0.00715300
v 0.08800800 0.02607100 0.02255800
v 0.08524700 -0.03882500 0.00935200
v -0.08635600 -0.04651600 0.00385400
v 0.08635600 0.01286100 0.00715300
v -0.04674100 0.01726500 0.00000000
v -0.08800800 -0.04432400 0.04125200
v -0.03795100 -0.01461600 0.00055500
v 0.08415400 -0.02561500 0.04949600
v -0.07645700 -0.02452800 0.04565100
v 0.08635600 0.04586700 0.04675100
v -0.08744800 0.03926200 0.04014800
v 0.08744800 -0.04321800 0.04895000
v 0.07975100 -0.04432400 0.04785000
v -0.06655700 -0.00142600 0.00000000
v -0.08800800 -0.01902000 0.00715300
v 0.08524700 -0.04542900 0.01375600
v -0.02694200 -0.03662300 0.00385400
v -0.08744800 -0.04651600 0.04235200
v 0.08800800 -0.00581900 0.03684900
v -0.04564900 -0.04708100 0.01925900
v 0.08800800 -0.04101700 0.01925900
v -0.08635600 0.04366500 0.00165400
v -0.08800800 0.02496600 0.03684900
v 0.08304500 0.01507200 0.04895000
v -0.00714300 -0.00802100 0.00165400
v -0.08744800 0.04147300 0.00000000
v -0.08635600 -0.03551800 0.04454600
v -0.04894300 0.00296800 0.04675100
v 0.08744800 0.04476100 0.00825200
v -0.08415400 0.03816600 0.04125200
v 0.08304500 0.04697200 0.04675100
v 0.07975100 -0.04212200 0.04949600
v -0.06655700 -0.04542000 0.00385400
v -0.07864100 0.01946600 0.04454600
v -0.08635600 0.02496600 0.00000000
v 0.08084300 -0.04542900 0.03134500
v -0.04235500 -0.02672100 0.00165400
v -0.07754900 -0.04708100 0.00495800
v -0.08744800 0.02606200 0.04235200
v -0.02033600 0.01286100 0.00055500
v -0.05554800 0.02607100 0.00000000
v 0.06324600 0.04708100 0.03904800
v 0.08744800 0.02716700 0.04455100
vn -0.04466920 -0.09246650 -0.99471333
vn -0.00271561 0.99964975 0.02632480
vn 0.00332075 0.99999416 -0.00080662
vn 0.56937868 -0.82206308 -0.00449504
vn -0.58036585 -0.34705346 0.73670169
vn -0.24778410 0.51993293 -0.81747953
vn 0.35473100 0.49589672 -0.79262372
vn -0.55406547 0.70827950 0.43743754
vn 0.21417495 -0.55931066 0.80081251
vn 0.10927711 -0.65414525 -0.74843337
vn 0.31402141 0.14713746 0.93794516
vn -0.63131705 -0.76920193 -0.09882895
vn -0.07062914 0.03776585 0.99678747
vn 0.03998669 -0.02127508 -0.99897369
vn 0.80046878 -0.04294939 -0.59783366
vn 0.23324556 0.95722693 -0.17121072
vn -0.14185756 0.13251974 0.98097653
vn -0.03889983 0.00447260 0.99923311
vn -0.00412373 -0.99960150 0.02792564
vn -0.23225329 0.97069030 -0.06179602
vn -0.99938190 0.01339272 -0.03250313
vn 0.99976822 0.02137995 0.00252972
vn 0.57326611 -0.23325973 -0.78546538
vn -0.58124634 -0.53022079 -0.61726705
vn 0.44596757 -0.01340506 -0.89494873
vn 0.01520984 0.00603878 -0.99986609
vn -0.99078499 -0.10397047 0.08680581
vn 0.02646600 -0.06313728 -0.99765387
vn 0.05770975 0.01231699 0.99825742
vn -0.07522016 -0.02008906 0.99696457
vn 0.68634858 0.55301458 0.47233515
vn -0.76567936 0.22349328 0.60314664
vn 0.70276513 -0.54162840 0.46125899
vn 0.03494446 -0.94566653 0.32325484
vn -0.01690448 -0.02813229 -0.99946126
vn -0.99015094 -0.02056513 -0.13848534
vn 0.54777670 -0.75851956 -0.35297133
vn 0.04367199 -0.17351097 -0.98386315
vn -0.56747052 -0.75959410 0.31779555
vn 0.99959211 0.00151344 0.02851897
vn 0.00964798 -0.99995320 0.00071129
vn 0.97027990 -0.21581488 -0.10945710
vn -0.47032378 0.83960983 -0.27175517
vn -0.99883201 0.01528842 0.04583532
vn 0.09306039 0.02459856 0.99535656
vn 0.05790805 -0.05385392 -0.99686830
vn -0.71152276 0.22031228 -0.66723149
vn -0.42173539 -0.03342744 0.90610257
vn -0.02811174 0.04542438 0.99857216
vn 0.80467301 0.47900593 -0.35079149
vn -0.14469749 0.26210686 0.95412925
vn 0.10172654 0.81635571 0.56852007
vn -0.02107526 -0.09161493 0.99557146
vn 0.03143471 -0.43584032 -0.89947489
vn -0.12164094 0.06116860 0.99068758
vn -0.33420358 -0.02628132 -0.94213442
vn 0.04148017 -0.99794072 0.04892554
vn 0.03214301 -0.12705521 -0.99137470
vn 0.01823051 -0.93317739 -0.35895349
vn -0.74038779 0.05936986 0.66955294
vn 0.04177668 0.02582140 -0.99879325
vn 0.02110486 0.03722586 -0.99908399
vn -0.00557774 0.99998257 0.00193752
vn 0.98649419 0.02647574 0.16164234
f 5//5 39//39 9//9
f 12//12 39//39 27//27
f 39//39 5//5 27//27
f 16//16 50//50 7//7
f 53//53 5//5 9//9
f 48//48 5//5 53//53
f 60//60 5//5 48//48
f 60//60 27//27 5//5
f 33//33 11//11 9//9
f 33//33 40//40 64//64
f 42//42 40//40 33//33
f 25//25 50//50 15//15
f 7//7 50//50 25//25
f 12//12 27//27 24//24
f 24//24 27//27 36//36
f 7//7 25//25 61//61
f 47//47 36//36 21//21
f 56//56 24//24 47//47
f 47//47 24//24 36//36
f 9//9 39//39 34//34
f 39//39 57//57 34//34
f 34//34 33//33 9//9
f 19//19 57//57 39//39
f 41//41 57//57 19//19
f 19//19 39//39 12//12
f 8//8 63//63 20//20
f 20//20 63//63 16//16
f 45//45 11//11 49//49
f 9//9 11//11 45//45
f 27//27 60//60 44//44
f 22//22 50//50 64//64
f 64//64 40//40 22//22
f 15//15 50//50 22//22
f 31//31 33//33 64//64
f 11//11 33//33 31//31
f 64//64 50//50 31//31
f 52//52 11//11 31//31
f 31//31 16//16 52//52
f 50//50 16//16 31//31
f 4//4 41//41 37//37
f 4//4 57//57 41//41
f 37//37 42//42 4//4
f 42//42 33//33 4//4
f 4//4 34//34 57//57
f 33//33 34//34 4//4
f 23//23 38//38 58//58
f 58//58 28//28 23//23
f 23//23 28//28 46//46
f 23//23 25//25 15//15
f 46//46 25//25 23//23
f 37//37 10//10 23//23
f 15//15 42//42 23//23
f 23//23 42//42 37//37
f 58//58 38//38 54//54
f 10//10 24//24 54//54
f 38//38 23//23 54//54
f 54//54 23//23 10//10
f 59//59 10//10 37//37
f 59//59 24//24 10//10
f 12//12 24//24 59//59
f 37//37 41//41 59//59
f 62//62 61//61 26//26
f 62//62 6//6 7//7
f 7//7 61//61 62//62
f 46//46 28//28 14//14
f 14//14 25//25 46//46
f 14//14 61//61 25//25
f 26//26 61//61 14//14
f 14//14 35//35 26//26
f 14//14 28//28 35//35
f 2//2 8//8 52//52
f 2//2 63//63 8//8
f 52//52 16//16 2//2
f 43//43 20//20 16//16
f 7//7 6//6 43//43
f 43//43 16//16 7//7
f 8//8 20//20 43//43
f 6//6 47//47 43//43
f 43//43 47//47 8//8
f 29//29 53//53 9//9
f 9//9 45//45 29//29
f 48//48 53//53 30//30
f 21//21 44//44 32//32
f 32//32 47//47 21//21
f 8//8 47//47 32//32
f 32//32 44//44 60//60
f 58//58 54//54 1//1
f 1//1 54//54 24//24
f 1//1 28//28 58//58
f 35//35 28//28 1//1
f 56//56 35//35 1//1
f 1//1 24//24 56//56
f 16//16 63//63 3//3
f 3//3 2//2 16//16
f 63//63 2//2 3//3
f 49//49 13//13 18//18
f 13//13 30//30 18//18
f 18//18 30//30 53//53
f 53//53 29//29 18//18
f 18//18 45//45 49//49
f 18//18 29//29 45//45
f 11//11 17//17 55//55
f 49//49 11//11 55//55
f 55//55 13//13 49//49
f 48//48 30//30 55//55
f 55//55 30//30 13//13
f 55//55 60//60 48//48
f 55//55 17//17 60//60
f 60//60 17//17 51//51
f 51//51 32//32 60//60
f 51//51 17//17 11//11
f 51//51 11//11 52//52
f 52//52 8//8 51//51
f 8//8 32//32 51//51
f 36//36 27//27 44//44
f 21//21 36//36 44//44
f 22//22 40//40 42//42
f 22//22 42//42 15//15
f 41//41 19//19 59//59
f 59//59 19//19 12//12
f 62//62 35//35 56//56
f 26//26 35//35 62//62
f 56//56 47//47 62//62
f 62//62 47//47 6//6


